<svg width="22" height="15" viewBox="0 0 22 15" fill="none" xmlns="http://www.w3.org/2000/svg">
<path fill-rule="evenodd" clip-rule="evenodd" d="M0.825195 7.72412C0.825195 7.30991 1.16098 6.97412 1.5752 6.97412L19.5759 6.97412C19.9901 6.97412 20.3259 7.30991 20.3259 7.72412C20.3259 8.13833 19.9901 8.47412 19.5759 8.47412L1.5752 8.47412C1.16098 8.47412 0.825195 8.13833 0.825195 7.72412Z" fill="currentColor"/>
<path fill-rule="evenodd" clip-rule="evenodd" d="M15.0951 1.14798C15.4133 0.882804 15.8862 0.925788 16.1514 1.24399L20.8848 6.92389C21.2711 7.38746 21.2711 8.06083 20.8848 8.52439L16.1514 14.2043C15.8862 14.5225 15.4133 14.5655 15.0951 14.3003C14.7769 14.0351 14.7339 13.5622 14.9991 13.244L19.5991 7.72414L14.9991 2.20429C14.7339 1.88609 14.7769 1.41316 15.0951 1.14798Z" fill="currentColor"/>
</svg>
