<svg viewBox="0 0 25 25" fill="none" xmlns="http://www.w3.org/2000/svg">
    <path fill-rule="evenodd" clip-rule="evenodd" d="M1.62768 14.7776L11.1562 24.2907C11.6242 24.7579 12.3839 24.7579 12.8531 24.2907C13.3211 23.8223 13.3211 23.064 12.8531 22.5956L5.12397 14.8806C4.74598 14.5032 5.0136 13.8587 5.54877 13.8587L23.2997 13.8587C23.9621 13.8587 24.4997 13.3124 24.4997 12.6499L24.4997 12.6464C24.4997 11.9839 23.9621 11.4628 23.2997 11.4628L5.54877 11.4628C5.0136 11.4628 4.74598 10.817 5.12397 10.4397L12.89 2.68636C13.3592 2.21915 13.3592 1.45963 12.89 0.99242C12.422 0.524011 11.6617 0.524011 11.1937 0.99242L1.20287 10.9656C0.265708 11.9012 0.265708 13.4179 1.20287 14.3535L1.62768 14.7776Z" fill="white"/>
</svg>
