<svg width="20" height="21" viewBox="0 0 20 21" fill="none" xmlns="http://www.w3.org/2000/svg">
<path fill-rule="evenodd" clip-rule="evenodd" d="M0.939731 12.7086L8.88016 20.6362C9.27014 21.0256 9.90325 21.0256 10.2942 20.6362C10.6842 20.2459 10.6842 19.6139 10.2942 19.2236L3.85331 12.7944C3.53832 12.48 3.76133 11.9429 4.20731 11.9429L18.9998 11.9429C19.5518 11.9429 19.9998 11.4877 19.9998 10.9356L19.9998 10.9326C19.9998 10.3805 19.5518 9.94625 18.9998 9.94625L4.20731 9.94625C3.76133 9.94625 3.53832 9.40816 3.85331 9.09369L10.325 2.6326C10.716 2.24325 10.716 1.61032 10.325 1.22098C9.93501 0.830637 9.30139 0.830637 8.91141 1.22098L0.585727 9.53195C-0.195243 10.3116 -0.195243 11.5755 0.585727 12.3552L0.939731 12.7086Z" fill="currentColor"/>
</svg>
