<svg width="22" height="15" viewBox="0 0 22 15" fill="none" xmlns="http://www.w3.org/2000/svg">
<path fill-rule="evenodd" clip-rule="evenodd" d="M21.1748 7.72412C21.1748 8.13833 20.839 8.47412 20.4248 8.47412L2.42412 8.47412C2.0099 8.47412 1.67412 8.13833 1.67412 7.72412C1.67412 7.30991 2.0099 6.97412 2.42412 6.97412L20.4248 6.97412C20.839 6.97412 21.1748 7.30991 21.1748 7.72412Z" fill="currentColor"/>
<path fill-rule="evenodd" clip-rule="evenodd" d="M6.90494 14.3003C6.58673 14.5654 6.11381 14.5225 5.84863 14.2043L1.1152 8.52435C0.728878 8.06079 0.72888 7.38742 1.1152 6.92385L5.84863 1.24395C6.11381 0.92575 6.58673 0.882766 6.90494 1.14795C7.22314 1.41312 7.26612 1.88605 7.00094 2.20425L2.40089 7.7241L7.00094 13.244C7.26612 13.5622 7.22314 14.0351 6.90494 14.3003Z" fill="currentColor"/>
</svg>
