<svg width="20" height="20" viewBox="0 0 17 18" fill="none" xmlns="http://www.w3.org/2000/svg">
    <path fill-rule="evenodd" clip-rule="evenodd" d="M16.2012 7.48669L9.45186 0.748206C9.12038 0.417264 8.58224 0.417264 8.24991 0.748206C7.91842 1.08 7.91842 1.61714 8.24991 1.94893L13.7247 7.41371C13.9924 7.68101 13.8029 8.13754 13.4238 8.13754L0.850176 8.13754C0.380993 8.13754 0.000175125 8.52448 0.000175105 8.99374L0.000175105 8.99629C0.000175084 9.46554 0.380992 9.83467 0.850175 9.83467L13.4238 9.83467C13.8029 9.83467 13.9924 10.2921 13.7247 10.5593L8.22376 16.0513C7.89142 16.3822 7.89142 16.9202 8.22376 17.2512C8.55524 17.5829 9.09382 17.5829 9.4253 17.2512L16.5021 10.1868C17.166 9.5241 17.166 8.44981 16.5021 7.78708L16.2012 7.48669Z" fill="white"/>
</svg>
