<svg width="24" height="24" viewBox="0 0 24 24" fill="none" xmlns="http://www.w3.org/2000/svg">
<path fill-rule="evenodd" clip-rule="evenodd" d="M6.97263 21.9V13.329C6.97263 13.312 6.97263 13.295 6.97463 13.278C6.69863 13.194 6.52963 12.915 6.58663 12.63C6.85263 11.283 7.15563 9.90504 7.58263 8.74304C5.76963 8.09504 4.24163 7.02004 3.67763 5.57904C3.59563 5.37104 3.64563 5.13404 3.80363 4.97604C5.23863 3.54004 6.30163 2.58504 8.30963 1.92104C9.53963 1.51604 10.9136 1.64004 12.0046 2.96404C13.0966 1.63604 14.4686 1.51504 15.7016 1.92104C17.7106 2.58504 18.7706 3.53904 20.2076 4.97604C20.3656 5.13404 20.4156 5.37104 20.3336 5.57904C19.7566 7.04904 18.1776 8.14104 16.3056 8.78604C16.7036 9.94004 16.9866 11.303 17.2496 12.63C17.3056 12.914 17.1386 13.193 16.8616 13.278C16.8436 13.284 16.8256 13.289 16.8076 13.295L16.8086 21.899C16.8086 22.21 16.5566 22.462 16.2466 22.462C15.9356 22.462 15.6836 22.21 15.6836 21.899L15.6826 13.604C13.0686 14.248 10.8596 14.23 8.09763 13.572V21.9C8.09763 22.211 7.84563 22.463 7.53563 22.463C7.22463 22.463 6.97263 22.211 6.97263 21.9ZM15.9266 12.378L16.0416 12.344L15.8486 11.412C15.5436 10.023 15.2016 8.80104 14.7186 7.94604C14.1826 6.99504 13.5196 6.47904 12.2166 7.06404C12.0696 7.12904 11.9026 7.12904 11.7556 7.06404C10.5196 6.51004 9.79163 6.92204 9.17963 7.95604C8.67362 8.80904 8.30663 10.032 7.99062 11.418L7.79863 12.33L7.7966 12.3351V12.3371C10.8516 13.14 13.0896 13.158 15.9266 12.378ZM7.7966 12.3371V12.3351L7.29063 12.198C7.46163 12.247 7.6306 12.2931 7.7966 12.3371ZM19.0776 5.58104L19.1276 5.49104L18.9066 5.27304C17.7676 4.17104 16.8816 3.49604 15.3486 2.99004C14.3816 2.67104 13.3476 2.75804 12.4916 4.23604C12.4877 4.24301 12.4836 4.24904 12.4686 4.26204C12.4556 4.29204 12.4356 4.31704 12.3976 4.34204C12.3766 4.37804 12.3466 4.40304 12.3096 4.42004C12.3046 4.42904 12.2956 4.43504 12.2866 4.44004C12.2496 4.46204 12.2106 4.47905 12.1586 4.49305C12.1536 4.49605 12.1476 4.49807 12.1346 4.49905C12.0986 4.51005 12.0626 4.51505 12.0046 4.51605C11.9756 4.51808 11.9236 4.51305 11.8736 4.49805C11.8636 4.49805 11.8576 4.49707 11.8516 4.49302C11.7976 4.47902 11.7596 4.46203 11.7226 4.44002C11.7116 4.435 11.7016 4.42802 11.6966 4.41802C11.6636 4.40302 11.6356 4.38002 11.6166 4.34702C11.5746 4.31903 11.5526 4.29102 11.5386 4.25902C11.5256 4.24802 11.5216 4.24202 11.5186 4.23502C10.6666 2.76302 9.62862 2.67102 8.66262 2.99002C7.12962 3.49602 6.24062 4.17202 5.10362 5.27302L4.88162 5.49202L4.92762 5.57302C5.45362 6.42902 6.55162 7.19302 8.03062 7.70902C8.08862 7.59602 8.14862 7.48702 8.21162 7.38202C9.00562 6.04202 10.2076 5.30602 11.8766 5.90102L11.9856 5.94502L12.0946 5.90102C13.7586 5.30602 14.9336 6.04002 15.6986 7.39302C15.7616 7.50502 15.8216 7.62202 15.8806 7.74302C17.4006 7.23002 18.5356 6.45204 19.0776 5.58104Z" fill="currentColor"/>
</svg>
