<svg width="32" height="32" viewBox="0 0 32 32" fill="none" xmlns="http://www.w3.org/2000/svg">
<path fill-rule="evenodd" clip-rule="evenodd" d="M8.84045 29.8573L2.29378 23.3107C2.01511 23.0333 2.01644 22.58 2.29911 22.3053L14.5804 10.28C15.5564 9.30134 17.5911 8.74801 19.0071 8.37601L19.4338 8.26267L24.0004 4.71201L24.0471 4.38001C24.2538 3.57734 24.7644 2.61601 25.5578 2.34267C25.8644 2.23467 26.2058 2.23734 26.5351 2.38667L26.6058 2.436L26.6605 2.44801C26.7458 2.48134 26.8258 2.53333 26.8951 2.60267L29.7005 5.408C29.8431 5.54934 29.9631 5.712 30.0458 5.896C30.1925 6.22534 30.1951 6.56534 30.0898 6.872C29.8138 7.67201 28.8565 8.18134 28.0525 8.38534L27.7031 8.43467L24.0125 12.856L23.9151 13.2267C23.5618 14.568 22.9671 16.7333 21.9991 17.7013L9.84045 29.8573C9.56578 30.1347 9.11645 30.1347 8.84045 29.8573ZM19.2804 29.8573L17.4111 27.9907C17.4084 27.988 17.4058 27.9853 17.4031 27.9827L17.3924 27.9707C17.3818 27.96 17.3724 27.9507 17.3324 27.9027C17.3124 27.8827 17.2724 27.8173 17.2431 27.7467C17.2364 27.7373 17.2324 27.7307 17.2324 27.7213C17.2004 27.64 17.1844 27.5507 17.1898 27.5533C17.1858 27.4627 17.1858 27.464 17.1858 27.4653C17.1858 27.3693 17.2031 27.2867 17.2351 27.2093C17.2351 27.2053 17.2364 27.2027 17.2391 27.2C17.2791 27.1053 17.3271 27.036 17.3924 26.9707L19.2804 25.0827C19.5551 24.8053 20.0044 24.8053 20.2804 25.0827C20.5578 25.3587 20.5578 25.808 20.2804 26.0827L19.6391 26.7253L20.1071 26.676C26.2471 25.8147 29.1404 18.7947 26.7178 14.6147C26.5218 14.276 26.6378 13.8427 26.9738 13.6467C27.3124 13.4507 27.7458 13.5653 27.9418 13.9027C30.9724 19.132 27.1858 27.6347 19.5764 28.1547L20.2804 28.8573C20.5578 29.1333 20.5578 29.5827 20.2804 29.8573C20.0044 30.1347 19.5551 30.1347 19.2804 29.8573ZM9.34178 28.3573L20.9964 16.7013C21.6164 16.0813 22.0671 14.6147 22.4511 13.2107L22.4484 13.2094L19.0657 9.82937C17.5657 10.2347 16.2191 10.6414 15.5764 11.2854L3.80044 22.816L9.34178 28.3573ZM3.13778 14.38C2.10444 8.42534 8.60178 1.76534 15.9218 3.91067L15.5058 3.00534C15.3418 2.65067 15.4965 2.22934 15.8511 2.06667C16.2058 1.90267 16.6271 2.05737 16.7898 2.41334L17.9071 4.83867C17.9071 4.83997 17.9071 4.84137 17.9138 4.868C17.9191 4.8653 17.9191 4.8653 17.9525 4.97467C17.9832 5.02134 17.9885 5.188 17.9645 5.24267C17.9458 5.32934 17.9472 5.31867 17.9325 5.352C17.9445 5.336 17.9485 5.31867 17.9045 5.43867C17.9298 5.396 17.8885 5.48668 17.8085 5.58001C17.8005 5.59734 17.7885 5.61201 17.7712 5.62401C17.7178 5.68668 17.6458 5.73867 17.5618 5.77734L15.1378 6.89334C14.7832 7.05734 14.3618 6.90264 14.1992 6.54801C14.0352 6.19201 14.1912 5.77068 14.5458 5.60934L15.3698 5.22934L14.9112 5.11334C8.85248 3.79467 3.70582 9.37734 4.53382 14.1373C4.60049 14.5227 4.34182 14.8893 3.95782 14.956C3.57248 15.0227 3.20445 14.7653 3.13778 14.38ZM23.0458 11.8067L26.4284 7.75467L24.6644 5.98934L20.4818 9.24267L23.0458 11.8067ZM28.5751 6.60401L28.7058 6.41734L26.0058 3.71867L25.8324 3.85334C25.6764 4.05734 25.4978 4.40267 25.4111 4.73734C25.4244 4.74801 25.4351 4.76001 25.4484 4.77067L27.6938 7.01867L27.6951 7.01997C28.0271 6.93597 28.3724 6.76001 28.5751 6.60401Z" fill="currentColor"/>
</svg>
