<svg width="19" height="17" viewBox="0 0 19 17" fill="none" xmlns="http://www.w3.org/2000/svg">
<path d="M17.417 2.66668H13.8545V1.12293C13.8581 0.927343 13.7925 0.736761 13.6695 0.584717C13.5464 0.432672 13.3736 0.328908 13.1816 0.29168C13.0681 0.274458 12.9523 0.28211 12.842 0.314108C12.7318 0.346105 12.6299 0.401681 12.5433 0.476986C12.4567 0.55229 12.3875 0.645523 12.3405 0.750224C12.2935 0.854925 12.2699 0.968591 12.2712 1.08335V2.66668H6.72949V1.12293C6.73307 0.927343 6.66755 0.736761 6.54447 0.584717C6.42138 0.432672 6.24862 0.328908 6.05658 0.29168C5.94311 0.274458 5.82726 0.28211 5.71705 0.314108C5.60684 0.346105 5.5049 0.401681 5.4183 0.476986C5.3317 0.55229 5.26251 0.645523 5.21552 0.750224C5.16852 0.854925 5.14486 0.968591 5.14616 1.08335V2.66668H1.58366C1.3737 2.66668 1.17233 2.75009 1.02387 2.89855C0.8754 3.04702 0.791992 3.24838 0.791992 3.45835V16.125C0.791992 16.335 0.8754 16.5363 1.02387 16.6848C1.17233 16.8333 1.3737 16.9167 1.58366 16.9167H17.417C17.627 16.9167 17.8283 16.8333 17.9768 16.6848C18.1253 16.5363 18.2087 16.335 18.2087 16.125V3.45835C18.2087 3.24838 18.1253 3.04702 17.9768 2.89855C17.8283 2.75009 17.627 2.66668 17.417 2.66668ZM16.6253 15.3333H2.37533V7.41668H16.6253V15.3333ZM16.6253 5.83335H2.37533V4.25001H16.6253V5.83335Z" fill="currentColor"/>
<path d="M5.54199 9H3.95866C3.52143 9 3.16699 9.35444 3.16699 9.79167V11.375C3.16699 11.8122 3.52143 12.1667 3.95866 12.1667H5.54199C5.97922 12.1667 6.33366 11.8122 6.33366 11.375V9.79167C6.33366 9.35444 5.97922 9 5.54199 9Z" fill="currentColor"/>
<path d="M15.042 9H13.4587C13.0214 9 12.667 9.35444 12.667 9.79167V11.375C12.667 11.8122 13.0214 12.1667 13.4587 12.1667H15.042C15.4792 12.1667 15.8337 11.8122 15.8337 11.375V9.79167C15.8337 9.35444 15.4792 9 15.042 9Z" fill="currentColor"/>
<path d="M10.292 9H8.70866C8.27143 9 7.91699 9.35444 7.91699 9.79167V11.375C7.91699 11.8122 8.27143 12.1667 8.70866 12.1667H10.292C10.7292 12.1667 11.0837 11.8122 11.0837 11.375V9.79167C11.0837 9.35444 10.7292 9 10.292 9Z" fill="currentColor"/>
</svg>
