<svg width="24" height="24" viewBox="0 0 24 24" fill="none" xmlns="http://www.w3.org/2000/svg">
<path fill-rule="evenodd" clip-rule="evenodd" d="M6.06483 21.775L0.450829 10.492C-0.036171 9.51498 0.362829 8.32698 1.33983 7.84098L9.78683 3.63798C10.7638 3.15098 11.9518 3.54998 12.4378 4.52698L18.0508 15.81C18.1778 16.066 18.2448 16.336 18.2558 16.605L18.2528 16.612L22.3918 8.12995C22.5978 7.70795 22.4218 7.19695 21.9988 6.99095L19.9618 5.99695L19.9609 4.74595L22.4919 5.97995C23.4729 6.45795 23.8809 7.64295 23.4029 8.62295L18.3289 19.021L17.9299 19.838C17.4509 20.816 16.2679 21.227 15.2859 20.747C15.1669 20.69 15.0769 20.595 15.0239 20.484L15.0269 20.483L16.4719 19.76C16.6599 19.684 16.8219 19.541 16.9189 19.343L17.3179 18.528L17.4279 18.302C17.3449 18.361 17.2559 18.415 17.1619 18.461L8.71483 22.665C7.73783 23.152 6.54983 22.752 6.06483 21.775ZM8.21383 21.658L16.6608 17.454C17.0818 17.244 17.2528 16.732 17.0438 16.311L11.4308 5.02798C11.2208 4.60698 10.7088 4.43598 10.2878 4.64498L1.84083 8.84798C1.41983 9.05798 1.24883 9.56998 1.45783 9.99098L7.07183 21.274C7.28083 21.695 7.79283 21.867 8.21383 21.658ZM10.7348 16.488L10.6878 16.485L10.6378 16.479L10.5928 16.469L10.5628 16.462C9.31582 16.079 7.56982 16.028 6.33282 15.131C5.40182 14.455 4.64082 13.139 4.88382 11.968C5.12282 10.804 6.43282 9.92001 7.80682 10.225L8.07182 10.301L8.18782 10.041C8.83483 8.78898 10.3018 8.33798 11.3668 8.89398C12.4308 9.44998 12.9638 10.866 12.8968 12.02C12.8088 13.547 11.7758 14.846 11.2378 16.157L11.2028 16.225L11.1578 16.284L11.1248 16.324C11.0988 16.35 11.0708 16.373 11.0408 16.393L10.9838 16.424L10.9458 16.444L10.9018 16.458L10.8568 16.471L10.8118 16.48L10.8428 16.476C10.8398 16.477 10.8378 16.477 10.8148 16.48H10.8218L10.7528 16.486L10.7968 16.482L10.8068 16.481L10.7418 16.487L10.8218 16.48C10.7928 16.485 10.7638 16.488 10.7348 16.488ZM10.8068 16.481L10.8098 16.48H10.8088L10.8068 16.481ZM10.4108 15.256L10.4278 15.219C10.9748 14.079 11.7118 13.019 11.7738 11.955C11.8238 11.092 11.3978 10.18 10.8458 9.89101C10.2778 9.59401 9.16183 9.91701 9.00283 11.174C8.94983 11.588 8.47883 11.803 8.13183 11.571C7.62483 11.233 7.12183 11.232 6.72983 11.391C6.31683 11.558 6.04883 11.889 5.98483 12.195C5.85883 12.802 6.29883 13.715 6.99383 14.22C7.85483 14.845 9.14283 14.947 10.3718 15.245L10.4108 15.256ZM18.8168 14.768L17.6918 12.519L17.6939 3.62C17.6939 3.151 17.3119 2.76801 16.8419 2.76801H7.40583C6.93583 2.76801 6.55283 3.151 6.55283 3.62V3.97L5.42783 4.532V3.62C5.42783 2.53 6.31483 1.64301 7.40583 1.64301H16.8418C17.9328 1.64301 18.8188 2.53 18.8188 3.621L18.8168 14.768Z" fill="currentColor"/>
</svg>
