<svg width="19" height="20" viewBox="0 0 19 20" fill="none" xmlns="http://www.w3.org/2000/svg">
<g clip-path="url(#clip0_6_5496)">
<path d="M19.0002 13.6814C19.0002 11.9002 17.2189 10.3564 15.2002 9.7627C13.6564 11.5439 10.5689 12.6127 7.6002 12.6127C7.48145 12.6127 7.24395 12.6127 7.1252 12.6127C7.1252 12.6127 7.1252 12.6127 7.00645 12.6127C6.8877 12.9689 6.8877 13.2064 6.8877 13.5627C6.8877 15.9377 9.5002 17.8377 12.8252 17.8377C13.0627 17.8377 13.3002 17.8377 13.5377 17.8377C14.0127 18.4314 15.5564 19.5002 17.5752 19.5002C17.5752 19.5002 16.6252 19.0252 16.6252 17.3627C16.6252 16.6502 19.0002 15.2252 19.0002 13.6814Z" fill="currentColor"/>
<path d="M4.0625 10.7125V10.4722L3.87485 10.3221C3.81411 10.2735 3.75087 10.2232 3.68554 10.1712C3.0993 9.7048 2.34417 9.10403 1.70591 8.40195C0.987718 7.61194 0.5 6.78072 0.5 5.9625C0.5 4.69118 1.26412 3.46156 2.60178 2.52799C3.93525 1.59734 5.79266 1 7.8375 1C9.8814 1 11.6755 1.5967 12.9463 2.52215C14.2183 3.44848 14.9375 4.67741 14.9375 5.9625C14.9375 7.30722 14.1884 8.56499 12.9038 9.49041C11.6199 10.4154 9.82975 10.9817 7.85178 10.9252L7.84464 10.925H7.8375H7.83541H7.83333H7.83124H7.82915H7.82706H7.82498H7.82289H7.8208H7.81871H7.81663H7.81454H7.81245H7.81037H7.80828H7.80619H7.80411H7.80202H7.79993H7.79785H7.79576H7.79367H7.79159H7.7895H7.78741H7.78533H7.78324H7.78116H7.77907H7.77699H7.7749H7.77282H7.77073H7.76865H7.76656H7.76448H7.76239H7.76031H7.75823H7.75614H7.75406H7.75198H7.74989H7.74781H7.74573H7.74365H7.74157H7.73948H7.7374H7.73532H7.73324H7.73116H7.72908H7.727H7.72492H7.72284H7.72076H7.71868H7.7166H7.71453H7.71245H7.71037H7.70829H7.70621H7.70414H7.70206H7.69999H7.69791H7.69584H7.69376H7.69169H7.68961H7.68754H7.68546H7.68339H7.68132H7.67925H7.67717H7.6751H7.67303H7.67096H7.66889H7.66682H7.66475H7.66268H7.66061H7.65855H7.65648H7.65441H7.65235H7.65028H7.64821H7.64615H7.64408H7.64202H7.63996H7.63789H7.63583H7.63377H7.63171H7.62964H7.62758H7.62552H7.62346H7.62141H7.61935H7.61729H7.61523H7.61318H7.61112H7.60906H7.60701H7.60495H7.6029H7.60085H7.59879H7.59674H7.59469H7.59264H7.59059H7.58854H7.58649H7.58444H7.5824H7.58035H7.5783H7.57626H7.57421H7.57217H7.57012H7.56808H7.56604H7.564H7.56196H7.55992H7.55788H7.55584H7.5538H7.55176H7.54973H7.54769H7.54566H7.54362H7.54159H7.53956H7.53752H7.53549H7.53346H7.53143H7.5294H7.52738H7.52535H7.52332H7.5213H7.51927H7.51725H7.51522H7.5132H7.51118H7.50916H7.50714H7.50512H7.5031H7.50109H7.49907H7.49705H7.49504H7.49302H7.49101H7.489H7.48699H7.48498H7.48297H7.48096H7.47895H7.47695H7.47494H7.47294H7.47093H7.46893H7.46693H7.46493H7.46293H7.46093H7.45893H7.45693H7.45494H7.45294H7.45095H7.44895H7.44696H7.44497H7.44298H7.44099H7.439H7.43702H7.43503H7.43305H7.43106H7.42908H7.4271H7.42512H7.42314H7.42116H7.41918H7.41721H7.41523H7.41326H7.41128H7.40931H7.40734H7.40537H7.4034H7.40143H7.39947H7.3975H7.39554H7.39357H7.39161H7.38965H7.38769H7.38573H7.38378H7.38182H7.37987H7.37791H7.37596H7.37401H7.37206H7.37011H7.36816H7.36622H7.36427H7.36233H7.36038H7.35844H7.3565H7.35456H7.35263H7.35069H7.34875H7.34682H7.34489H7.34296H7.34103H7.3391H7.33717H7.33524H7.33332H7.3314H7.32947H7.32755H7.32563H7.32372H7.3218H7.31988H7.31797H7.31606H7.31415H7.31223H7.31033H7.30842H7.30651H7.30461H7.30271H7.3008H7.2989H7.297H7.29511H7.29321H7.29132H7.28942H7.28753H7.28564H7.28375H7.28186H7.27998H7.27809H7.27621H7.27433H7.27245H7.27057H7.26869H7.26682H7.26494H7.26307H7.2612H7.25933H7.25746H7.2556H7.25373H7.25187H7.25001H7.24815H7.24629H7.24443H7.24257H7.24072H7.23887H7.23702H7.23517H7.23332H7.23147H7.22963H7.22779H7.22595H7.22411H7.22227H7.22043H7.2186H7.21676H7.21493H7.2131H7.21127H7.20945H7.20762H7.2058H7.20398H7.20216H7.20034H7.19852H7.19671H7.1949H7.19308H7.19127H7.18947H7.18766H7.18586H7.18405H7.18225H7.18045H7.17866H7.17686H7.17507H7.17327H7.17148H7.16969H7.16791H7.16612H7.16434H7.16256H7.16078H7.159H7.15722H7.15545H7.15368H7.15191H7.15014H7.14837H7.14661H7.14484H7.14308H7.14132H7.13956H7.13781H7.13606H7.1343H7.13255H7.13081H7.12906H7.12731H7.12557H7.12383H7.12209H7.12036H7.11862H7.11689H7.11516H7.11343H7.1117H7.10998H7.10825H7.10653H7.10481H7.1031H7.10138H7.09967H7.09796H7.09625H7.09454H7.09284H7.09113H7.08943H7.08773H7.08604H7.08434H7.08265H7.08096H7.07927H7.07758H7.0759H7.07421H7.07253H7.07085H7.06918H7.0675H7.06583H7.06416H7.06249H7.06083H7.05916H7.0575H7.05584H7.05419H7.05253H7.05088H7.04923H7.04758H7.04593H7.04429H7.04264H7.041H7.03937H7.03773H7.0361H7.03446H7.03284H7.03121H7.02958H7.02796H7.02634H7.02472H7.02311H7.02149H7.01988H7.01827H7.01667H7.01506H7.01346H7.01186H7.01026H7.00867H7.00707H7.00548H7.00389H7.00231H7.00072H6.99914H6.99756H6.99599H6.99441H6.99284H6.99127H6.9897H6.98813H6.98657H6.98501H6.98345H6.9819H6.98034H6.97879H6.97724H6.9757H6.97415H6.97261H6.97107H6.96954H6.968H6.96647H6.96494H6.96341H6.96189H6.96037H6.95885H6.95733H6.95582H6.9543H6.95279H6.95129H6.94978H6.94828H6.94678H6.94528H6.94379H6.9423H6.94081H6.93932H6.93783H6.93635H6.93487H6.93339H6.93192H6.93045H6.92898H6.92751H6.92605H6.92458H6.92313H6.92167H6.92022H6.91876H6.91732H6.91587H6.91443H6.91298H6.91155H6.91011H6.90868H6.90725H6.90582H6.90439H6.90297H6.90155H6.90013H6.89872H6.89731H6.8959H6.89449H6.89309H6.89169H6.89029H6.88889H6.8875H6.65753L6.50787 11.0996C6.00254 11.6892 5.02428 12.56 3.39859 12.9094C3.76481 12.391 4.0625 11.6713 4.0625 10.7125Z" stroke="currentColor"/>
</g>
<defs>
<clipPath id="clip0_6_5496">
<rect width="19" height="19" fill="white" transform="translate(0 0.5)"/>
</clipPath>
</defs>
</svg>
