<svg width="19" height="20" viewBox="0 0 19 20" fill="none" xmlns="http://www.w3.org/2000/svg">
<path d="M1.36563 11.2154C1.54375 11.4529 1.9 11.5717 2.25625 11.5717L6.29375 11.5717C6.70938 11.5717 7.06563 11.9279 7.06563 12.3436L7.06563 17.3904C7.06563 18.0436 7.71875 18.5186 8.3125 18.5186C8.90625 18.5186 9.38125 18.0436 9.38125 17.3904C9.38125 16.0248 9.79688 14.6592 10.6281 13.5311L12.4688 11.4529L12.4688 4.50605C11.4594 3.61543 9.91563 3.08105 8.43125 3.08105L3.38438 3.08105C2.85 3.08105 2.43438 3.4373 2.31563 3.97168L1.12813 10.5623C1.1875 10.8592 1.1875 11.0967 1.36563 11.2154Z" fill="currentColor"/>
<path d="M14.9627 10.7998L16.5064 10.7998C16.9221 10.7998 17.2783 10.4436 17.2783 10.0279L17.2783 3.85293C17.2783 3.4373 16.9221 3.08105 16.5064 3.08105L14.9627 3.08105C14.5471 3.08105 14.1908 3.4373 14.1908 3.85293L14.1908 10.0279C14.1908 10.4436 14.5471 10.7998 14.9627 10.7998Z" fill="currentColor"/>
</svg>
