<svg width="1144" height="73" viewBox="0 0 1144 73" fill="none" xmlns="http://www.w3.org/2000/svg">
<path d="M33.5513 72.44C29.1993 72.44 25.0553 71.672 21.1193 70.136C17.1833 68.568 13.6953 66.264 10.6553 63.224C7.64725 60.184 5.26325 56.424 3.50325 51.944C1.77525 47.464 0.91125 42.296 0.91125 36.44C0.91125 28.792 2.36725 22.296 5.27925 16.952C8.22325 11.576 12.1593 7.48 17.0873 4.664C22.0473 1.848 27.5353 0.439999 33.5513 0.439999C42.4473 0.439999 49.4393 2.504 54.5273 6.632C59.6153 10.76 63.0233 16.6 64.7513 24.152L51.4073 26.072C50.1593 22.04 48.1113 18.824 45.2633 16.424C42.4473 13.992 38.8313 12.76 34.4153 12.728C30.0313 12.664 26.3833 13.608 23.4713 15.56C20.5593 17.512 18.3673 20.28 16.8953 23.864C15.4553 27.448 14.7353 31.64 14.7353 36.44C14.7353 41.24 15.4553 45.4 16.8953 48.92C18.3673 52.44 20.5593 55.176 23.4713 57.128C26.3833 59.08 30.0313 60.088 34.4153 60.152C37.3913 60.216 40.0793 59.704 42.4793 58.616C44.9113 57.528 46.9593 55.816 48.6233 53.48C50.2873 51.144 51.4713 48.152 52.1753 44.504H41.2313V34.424H66.0953C66.1593 34.84 66.2073 35.576 66.2393 36.632C66.2713 37.688 66.2873 38.296 66.2873 38.456C66.2873 45.08 64.9433 50.952 62.2553 56.072C59.5673 61.192 55.7753 65.208 50.8793 68.12C45.9833 71 40.2073 72.44 33.5513 72.44ZM75.9075 71V1.88H121.028V14.072H88.9635V28.856H115.268V41.048H88.9635V58.808H121.028V71H75.9075ZM148.565 71V14.072H126.773V1.88H183.413V14.072H161.621V71H148.565ZM226.658 71V1.88H268.898V14.936H239.714V29.912H263.138V42.968H239.714V71H226.658ZM305.692 72.44C300.124 72.44 295.228 71.32 291.004 69.08C286.78 66.808 283.484 63.624 281.116 59.528C278.748 55.432 277.564 50.616 277.564 45.08V1.976L290.812 1.88V44.984C290.812 47.256 291.196 49.32 291.964 51.176C292.732 53.032 293.788 54.632 295.132 55.976C296.508 57.32 298.092 58.36 299.884 59.096C301.708 59.8 303.644 60.152 305.692 60.152C307.804 60.152 309.756 59.784 311.548 59.048C313.372 58.312 314.956 57.272 316.3 55.928C317.644 54.584 318.684 52.984 319.42 51.128C320.188 49.272 320.572 47.224 320.572 44.984V1.88H333.82V45.08C333.82 50.616 332.636 55.432 330.268 59.528C327.9 63.624 324.604 66.808 320.38 69.08C316.156 71.32 311.26 72.44 305.692 72.44ZM348.18 71V1.88H361.236V58.808H390.996V71H348.18ZM400.118 71V1.88H413.174V58.808H442.934V71H400.118ZM479.951 71L501.071 1.88H520.559L541.679 71H528.239L509.423 10.04H511.919L493.391 71H479.951ZM492.623 56.6V44.408H529.103V56.6H492.623ZM578.072 72.44C571.16 72.44 565.192 70.936 560.168 67.928C555.176 64.92 551.32 60.712 548.6 55.304C545.912 49.896 544.568 43.608 544.568 36.44C544.568 29.272 545.912 22.984 548.6 17.576C551.32 12.168 555.176 7.96 560.168 4.952C565.192 1.944 571.16 0.439999 578.072 0.439999C586.008 0.439999 592.664 2.408 598.04 6.34399C603.448 10.28 607.256 15.608 609.464 22.328L596.312 25.976C595.032 21.784 592.872 18.536 589.832 16.232C586.792 13.896 582.872 12.728 578.072 12.728C573.688 12.728 570.024 13.704 567.08 15.656C564.168 17.608 561.976 20.36 560.504 23.912C559.032 27.464 558.296 31.64 558.296 36.44C558.296 41.24 559.032 45.416 560.504 48.968C561.976 52.52 564.168 55.272 567.08 57.224C570.024 59.176 573.688 60.152 578.072 60.152C582.872 60.152 586.792 58.984 589.832 56.648C592.872 54.312 595.032 51.064 596.312 46.904L609.464 50.552C607.256 57.272 603.448 62.6 598.04 66.536C592.664 70.472 586.008 72.44 578.072 72.44ZM649.697 72.44C642.785 72.44 636.817 70.936 631.793 67.928C626.801 64.92 622.945 60.712 620.225 55.304C617.537 49.896 616.193 43.608 616.193 36.44C616.193 29.272 617.537 22.984 620.225 17.576C622.945 12.168 626.801 7.96 631.793 4.952C636.817 1.944 642.785 0.439999 649.697 0.439999C657.633 0.439999 664.289 2.408 669.665 6.34399C675.073 10.28 678.881 15.608 681.089 22.328L667.937 25.976C666.657 21.784 664.497 18.536 661.457 16.232C658.417 13.896 654.497 12.728 649.697 12.728C645.313 12.728 641.649 13.704 638.705 15.656C635.793 17.608 633.601 20.36 632.129 23.912C630.657 27.464 629.921 31.64 629.921 36.44C629.921 41.24 630.657 45.416 632.129 48.968C633.601 52.52 635.793 55.272 638.705 57.224C641.649 59.176 645.313 60.152 649.697 60.152C654.497 60.152 658.417 58.984 661.457 56.648C664.497 54.312 666.657 51.064 667.937 46.904L681.089 50.552C678.881 57.272 675.073 62.6 669.665 66.536C664.289 70.472 657.633 72.44 649.697 72.44ZM691.658 71V1.88H736.778V14.072H704.714V28.856H731.018V41.048H704.714V58.808H736.778V71H691.658ZM774.395 72.44C769.275 72.44 764.651 71.544 760.523 69.752C756.427 67.928 753.051 65.336 750.395 61.976C747.771 58.584 746.107 54.552 745.403 49.88L759.035 47.864C759.995 51.832 761.979 54.888 764.987 57.032C767.995 59.176 771.419 60.248 775.259 60.248C777.403 60.248 779.483 59.912 781.499 59.24C783.515 58.568 785.163 57.576 786.443 56.264C787.755 54.952 788.411 53.336 788.411 51.416C788.411 50.712 788.299 50.04 788.075 49.4C787.883 48.728 787.547 48.104 787.067 47.528C786.587 46.952 785.899 46.408 785.003 45.896C784.139 45.384 783.035 44.92 781.691 44.504L763.739 39.224C762.395 38.84 760.827 38.296 759.035 37.592C757.275 36.888 755.563 35.88 753.898 34.568C752.235 33.256 750.843 31.528 749.723 29.384C748.635 27.208 748.091 24.472 748.091 21.176C748.091 16.536 749.259 12.68 751.595 9.608C753.931 6.536 757.051 4.248 760.955 2.744C764.859 1.24 769.179 0.503996 773.915 0.535997C778.683 0.599997 782.939 1.416 786.683 2.984C790.427 4.552 793.563 6.84 796.091 9.848C798.619 12.824 800.443 16.472 801.562 20.792L787.451 23.192C786.939 20.952 785.995 19.064 784.619 17.528C783.243 15.992 781.595 14.824 779.675 14.024C777.787 13.224 775.803 12.792 773.723 12.728C771.675 12.664 769.739 12.952 767.915 13.592C766.123 14.2 764.651 15.096 763.499 16.28C762.379 17.464 761.819 18.872 761.819 20.504C761.819 22.008 762.283 23.24 763.211 24.2C764.139 25.128 765.307 25.88 766.715 26.456C768.123 27.032 769.563 27.512 771.035 27.896L783.035 31.16C784.827 31.64 786.811 32.28 788.987 33.08C791.163 33.848 793.243 34.936 795.227 36.344C797.243 37.72 798.891 39.544 800.171 41.816C801.483 44.088 802.139 46.968 802.139 50.456C802.139 54.168 801.355 57.416 799.787 60.2C798.251 62.952 796.171 65.24 793.547 67.064C790.923 68.856 787.947 70.2 784.619 71.096C781.323 71.992 777.915 72.44 774.395 72.44ZM840.207 72.44C835.087 72.44 830.463 71.544 826.335 69.752C822.239 67.928 818.863 65.336 816.207 61.976C813.583 58.584 811.919 54.552 811.215 49.88L824.847 47.864C825.807 51.832 827.791 54.888 830.799 57.032C833.807 59.176 837.231 60.248 841.071 60.248C843.215 60.248 845.295 59.912 847.311 59.24C849.327 58.568 850.975 57.576 852.255 56.264C853.567 54.952 854.223 53.336 854.223 51.416C854.223 50.712 854.111 50.04 853.887 49.4C853.695 48.728 853.359 48.104 852.879 47.528C852.399 46.952 851.711 46.408 850.815 45.896C849.951 45.384 848.847 44.92 847.503 44.504L829.551 39.224C828.207 38.84 826.639 38.296 824.847 37.592C823.087 36.888 821.375 35.88 819.711 34.568C818.047 33.256 816.655 31.528 815.535 29.384C814.447 27.208 813.903 24.472 813.903 21.176C813.903 16.536 815.071 12.68 817.407 9.608C819.743 6.536 822.863 4.248 826.767 2.744C830.671 1.24 834.991 0.503996 839.727 0.535997C844.495 0.599997 848.751 1.416 852.495 2.984C856.239 4.552 859.375 6.84 861.903 9.848C864.431 12.824 866.255 16.472 867.375 20.792L853.263 23.192C852.751 20.952 851.807 19.064 850.431 17.528C849.055 15.992 847.407 14.824 845.487 14.024C843.599 13.224 841.615 12.792 839.535 12.728C837.487 12.664 835.551 12.952 833.727 13.592C831.935 14.2 830.463 15.096 829.311 16.28C828.191 17.464 827.631 18.872 827.631 20.504C827.631 22.008 828.095 23.24 829.023 24.2C829.951 25.128 831.119 25.88 832.527 26.456C833.935 27.032 835.375 27.512 836.847 27.896L848.847 31.16C850.639 31.64 852.623 32.28 854.799 33.08C856.975 33.848 859.055 34.936 861.039 36.344C863.055 37.72 864.703 39.544 865.983 41.816C867.295 44.088 867.951 46.968 867.951 50.456C867.951 54.168 867.167 57.416 865.599 60.2C864.063 62.952 861.983 65.24 859.359 67.064C856.735 68.856 853.759 70.2 850.431 71.096C847.135 71.992 843.727 72.44 840.207 72.44ZM916.939 71V1.88H930.187L960.235 47.96V1.88H973.483V71H960.235L930.187 24.92V71H916.939ZM1016.54 72.44C1009.63 72.44 1003.66 70.936 998.636 67.928C993.644 64.92 989.788 60.712 987.068 55.304C984.38 49.896 983.036 43.608 983.036 36.44C983.036 29.272 984.38 22.984 987.068 17.576C989.788 12.168 993.644 7.96 998.636 4.952C1003.66 1.944 1009.63 0.439999 1016.54 0.439999C1023.45 0.439999 1029.4 1.944 1034.4 4.952C1039.42 7.96 1043.28 12.168 1045.96 17.576C1048.68 22.984 1050.04 29.272 1050.04 36.44C1050.04 43.608 1048.68 49.896 1045.96 55.304C1043.28 60.712 1039.42 64.92 1034.4 67.928C1029.4 70.936 1023.45 72.44 1016.54 72.44ZM1016.54 60.152C1020.92 60.216 1024.57 59.272 1027.48 57.32C1030.4 55.368 1032.57 52.6 1034.01 49.016C1035.48 45.432 1036.22 41.24 1036.22 36.44C1036.22 31.64 1035.48 27.48 1034.01 23.96C1032.57 20.44 1030.4 17.704 1027.48 15.752C1024.57 13.8 1020.92 12.792 1016.54 12.728C1012.16 12.664 1008.51 13.608 1005.6 15.56C1002.68 17.512 1000.49 20.28 999.02 23.864C997.58 27.448 996.86 31.64 996.86 36.44C996.86 41.24 997.58 45.4 999.02 48.92C1000.49 52.44 1002.68 55.176 1005.6 57.128C1008.51 59.08 1012.16 60.088 1016.54 60.152ZM1071.22 71L1050.96 1.88H1064.69L1077.65 49.4L1090.61 1.976L1104.34 1.88L1117.3 49.4L1130.26 1.88H1143.98L1123.73 71H1110.86L1097.47 24.344L1084.08 71H1071.22Z" fill="#F3B800"/>
<path d="M21.1193 70.136L20.009 72.923L20.0188 72.9269L20.0286 72.9307L21.1193 70.136ZM10.6553 63.224L8.52274 65.3341L8.52832 65.3397L8.53393 65.3453L10.6553 63.224ZM3.50325 51.944L0.704245 53.0236L0.707594 53.0323L0.710997 53.041L3.50325 51.944ZM5.27925 16.952L2.64796 15.5111L2.64496 15.5165L5.27925 16.952ZM17.0872 4.66399L15.6061 2.05512L15.5988 2.05927L17.0872 4.66399ZM54.5273 6.632L56.4174 4.30231L54.5273 6.632ZM64.7513 24.152L65.1785 27.1214L68.4021 26.6576L67.6757 23.4828L64.7513 24.152ZM51.4073 26.072L48.5414 26.959L49.2989 29.4063L51.8345 29.0414L51.4073 26.072ZM45.2633 16.424L43.3024 18.6945L43.3161 18.7063L43.33 18.7181L45.2633 16.424ZM34.4153 12.728L34.3715 15.7277L34.3825 15.7278L34.3935 15.7279L34.4153 12.728ZM16.8952 23.864L14.1202 22.7242L14.1158 22.7349L14.1115 22.7455L16.8952 23.864ZM16.8952 48.92L14.1186 50.0559L14.123 50.0667L14.1275 50.0774L16.8952 48.92ZM23.4713 57.128L21.8008 59.6199L23.4713 57.128ZM34.4153 60.152L34.4798 57.1527L34.4694 57.1525L34.459 57.1523L34.4153 60.152ZM42.4793 58.616L41.2542 55.8775L41.2474 55.8806L41.2406 55.8837L42.4793 58.616ZM48.6233 53.48L46.1798 51.7394L46.1798 51.7395L48.6233 53.48ZM52.1752 44.504L55.1209 45.0725L55.8095 41.504H52.1752V44.504ZM41.2313 44.504H38.2313V47.504H41.2313V44.504ZM41.2313 34.424V31.424H38.2313V34.424H41.2313ZM66.0953 34.424L69.0604 33.9678L68.669 31.424H66.0953V34.424ZM66.2393 36.632L69.2379 36.5411V36.5411L66.2393 36.632ZM62.2552 56.072L59.5991 54.6775L62.2552 56.072ZM50.8793 68.12L52.4003 70.7058L52.4066 70.7021L52.4128 70.6984L50.8793 68.12ZM33.5513 69.44C29.561 69.44 25.7878 68.7375 22.2099 67.3413L20.0286 72.9307C24.3227 74.6065 28.8375 75.44 33.5513 75.44V69.44ZM22.2295 67.349C18.678 65.9342 15.5326 63.8588 12.7766 61.1027L8.53393 65.3453C11.8579 68.6692 15.6885 71.2018 20.009 72.923L22.2295 67.349ZM12.7878 61.1139C10.1 58.3976 7.92529 54.9956 6.29551 50.847L0.710997 53.041C2.60121 57.8524 5.1945 61.9704 8.52274 65.3341L12.7878 61.1139ZM6.30226 50.8644C4.73274 46.7953 3.91125 42.0055 3.91125 36.44H-2.08875C-2.08875 42.5865 -1.18224 48.1327 0.704245 53.0236L6.30226 50.8644ZM3.91125 36.44C3.91125 29.1672 5.29547 23.192 7.91354 18.3874L2.64496 15.5165C-0.56097 21.4 -2.08875 28.4168 -2.08875 36.44H3.91125ZM7.91054 18.3929C10.6105 13.4627 14.1672 9.78785 18.5757 7.26873L15.5988 2.05927C10.1513 5.17215 5.83604 9.68934 2.64796 15.5111L7.91054 18.3929ZM18.5684 7.27286C23.0519 4.72741 28.025 3.44 33.5513 3.44V-2.56C27.0455 -2.56 21.0426 -1.03141 15.6061 2.05513L18.5684 7.27286ZM33.5513 3.44C42.0043 3.44 48.2473 5.40012 52.6371 8.96168L56.4174 4.30231C50.6312 -0.392124 42.8902 -2.56 33.5513 -2.56V3.44ZM52.6371 8.96168C57.1138 12.5937 60.22 17.7989 61.8268 24.8211L67.6757 23.4828C65.8265 15.4011 62.1167 8.92632 56.4174 4.30231L52.6371 8.96168ZM64.324 21.1826L50.98 23.1026L51.8345 29.0414L65.1785 27.1214L64.324 21.1826ZM54.2731 25.1849C52.8786 20.6795 50.5401 16.9477 47.1964 14.1299L43.33 18.7181C45.6824 20.7003 47.4399 23.4005 48.5414 26.959L54.2731 25.1849ZM47.2241 14.1535C43.7718 11.172 39.4258 9.76423 34.437 9.72807L34.3935 15.7279C38.2367 15.7558 41.1227 16.812 43.3024 18.6945L47.2241 14.1535ZM34.459 9.72831C29.619 9.65766 25.3336 10.7 21.8008 13.0681L25.1417 18.0519C27.4329 16.516 30.4435 15.6703 34.3715 15.7277L34.459 9.72831ZM21.8008 13.0681C18.3432 15.3858 15.7935 18.6502 14.1202 22.7242L19.6703 25.0038C20.941 21.9098 22.7753 19.6382 25.1417 18.0519L21.8008 13.0681ZM14.1115 22.7455C12.4986 26.7599 11.7353 31.3466 11.7353 36.44H17.7353C17.7353 31.9333 18.4119 28.136 19.679 24.9825L14.1115 22.7455ZM11.7353 36.44C11.7353 41.5313 12.498 46.0944 14.1186 50.0559L19.6719 47.7841C18.4125 44.7056 17.7353 40.9487 17.7353 36.44H11.7353ZM14.1275 50.0774C15.8056 54.0902 18.3569 57.3114 21.8008 59.6199L25.1417 54.6361C22.7616 53.0406 20.9289 50.7898 19.663 47.7626L14.1275 50.0774ZM21.8008 59.6199C25.3025 61.9672 29.5528 63.0813 34.3715 63.1517L34.459 57.1523C30.5097 57.0947 27.464 56.1928 25.1417 54.6361L21.8008 59.6199ZM34.3507 63.1513C37.7172 63.2237 40.8588 62.6445 43.7179 61.3483L41.2406 55.8837C39.2997 56.7635 37.0653 57.2083 34.4798 57.1527L34.3507 63.1513ZM43.7044 61.3545C46.6613 60.0316 49.1172 57.9573 51.0667 55.2205L46.1798 51.7395C44.8013 53.6747 43.1612 55.0244 41.2542 55.8775L43.7044 61.3545ZM51.0667 55.2206C53.0423 52.4471 54.3585 49.0229 55.1209 45.0725L49.2296 43.9355C48.584 47.2811 47.5322 49.8409 46.1798 51.7394L51.0667 55.2206ZM52.1752 41.504H41.2313V47.504H52.1752V41.504ZM44.2313 44.504V34.424H38.2313V44.504H44.2313ZM41.2313 37.424H66.0953V31.424H41.2313V37.424ZM63.1301 34.8802C63.1629 35.0933 63.2085 35.661 63.2406 36.7229L69.2379 36.5411C69.2061 35.491 69.1556 34.5867 69.0604 33.9678L63.1301 34.8802ZM63.2406 36.7229C63.2566 37.2493 63.2684 37.6608 63.2763 37.9589C63.2802 38.1082 63.2831 38.2262 63.2849 38.3145C63.2858 38.3586 63.2864 38.3931 63.2868 38.4191C63.2872 38.447 63.2873 38.4573 63.2873 38.456H69.2873C69.2873 38.2375 69.2689 37.5663 69.2379 36.5411L63.2406 36.7229ZM63.2873 38.456C63.2873 44.6654 62.0303 50.0465 59.5991 54.6775L64.9114 57.4665C67.8562 51.8575 69.2873 45.4946 69.2873 38.456H63.2873ZM59.5991 54.6775C57.1646 59.3146 53.7577 62.9174 49.3457 65.5416L52.4128 70.6984C57.7928 67.4986 61.9699 63.0694 64.9114 57.4665L59.5991 54.6775ZM49.3582 65.5342C44.9971 68.0995 39.7652 69.44 33.5513 69.44V75.44C40.6493 75.44 46.9694 73.9005 52.4003 70.7058L49.3582 65.5342ZM75.9075 71H72.9075V74H75.9075V71ZM75.9075 1.88V-1.12H72.9075V1.88H75.9075ZM121.027 1.88H124.027V-1.12H121.027V1.88ZM121.027 14.072V17.072H124.027V14.072H121.027ZM88.9635 14.072V11.072H85.9635V14.072H88.9635ZM88.9635 28.856H85.9635V31.856H88.9635V28.856ZM115.268 28.856H118.268V25.856H115.268V28.856ZM115.268 41.048V44.048H118.268V41.048H115.268ZM88.9635 41.048V38.048H85.9635V41.048H88.9635ZM88.9635 58.808H85.9635V61.808H88.9635V58.808ZM121.027 58.808H124.027V55.808H121.027V58.808ZM121.027 71V74H124.027V71H121.027ZM78.9075 71V1.88H72.9075V71H78.9075ZM75.9075 4.88H121.027V-1.12H75.9075V4.88ZM118.027 1.88V14.072H124.027V1.88H118.027ZM121.027 11.072H88.9635V17.072H121.027V11.072ZM85.9635 14.072V28.856H91.9635V14.072H85.9635ZM88.9635 31.856H115.268V25.856H88.9635V31.856ZM112.268 28.856V41.048H118.268V28.856H112.268ZM115.268 38.048H88.9635V44.048H115.268V38.048ZM85.9635 41.048V58.808H91.9635V41.048H85.9635ZM88.9635 61.808H121.027V55.808H88.9635V61.808ZM118.027 58.808V71H124.027V58.808H118.027ZM121.027 68H75.9075V74H121.027V68ZM148.564 71H145.564V74H148.564V71ZM148.564 14.072H151.564V11.072H148.564V14.072ZM126.773 14.072H123.773V17.072H126.773V14.072ZM126.773 1.88V-1.12H123.773V1.88H126.773ZM183.413 1.88H186.413V-1.12H183.413V1.88ZM183.413 14.072V17.072H186.413V14.072H183.413ZM161.62 14.072V11.072H158.62V14.072H161.62ZM161.62 71V74H164.62V71H161.62ZM151.564 71V14.072H145.564V71H151.564ZM148.564 11.072H126.773V17.072H148.564V11.072ZM129.773 14.072V1.88H123.773V14.072H129.773ZM126.773 4.88H183.413V-1.12H126.773V4.88ZM180.413 1.88V14.072H186.413V1.88H180.413ZM183.413 11.072H161.62V17.072H183.413V11.072ZM158.62 14.072V71H164.62V14.072H158.62ZM161.62 68H148.564V74H161.62V68ZM226.658 71H223.658V74H226.658V71ZM226.658 1.88V-1.12H223.658V1.88H226.658ZM268.897 1.88H271.897V-1.12H268.897V1.88ZM268.897 14.936V17.936H271.897V14.936H268.897ZM239.714 14.936V11.936H236.714V14.936H239.714ZM239.714 29.912H236.714V32.912H239.714V29.912ZM263.138 29.912H266.138V26.912H263.138V29.912ZM263.138 42.968V45.968H266.138V42.968H263.138ZM239.714 42.968V39.968H236.714V42.968H239.714ZM239.714 71V74H242.714V71H239.714ZM229.658 71V1.88H223.658V71H229.658ZM226.658 4.88H268.897V-1.12H226.658V4.88ZM265.897 1.88V14.936H271.897V1.88H265.897ZM268.897 11.936H239.714V17.936H268.897V11.936ZM236.714 14.936V29.912H242.714V14.936H236.714ZM239.714 32.912H263.138V26.912H239.714V32.912ZM260.138 29.912V42.968H266.138V29.912H260.138ZM263.138 39.968H239.714V45.968H263.138V39.968ZM236.714 42.968V71H242.714V42.968H236.714ZM239.714 68H226.658V74H239.714V68ZM291.004 69.08L289.583 71.7221L289.59 71.7262L289.598 71.7304L291.004 69.08ZM281.116 59.528L283.713 58.0265L281.116 59.528ZM277.564 1.976L277.542 -1.02393L274.564 -1.00234V1.976H277.564ZM290.812 1.88H293.812V-1.14182L290.79 -1.11992L290.812 1.88ZM291.964 51.176L294.736 50.0289L291.964 51.176ZM295.132 55.976L293.01 58.0973L293.023 58.1098L293.036 58.1221L295.132 55.976ZM299.884 59.096L298.744 61.8711L298.774 61.8832L298.804 61.8948L299.884 59.096ZM311.548 59.048L310.425 56.2659L310.417 56.2694L310.408 56.2729L311.548 59.048ZM319.42 51.128L316.648 49.9809L316.639 50.0015L316.631 50.0221L319.42 51.128ZM320.572 1.88V-1.12H317.572V1.88H320.572ZM333.82 1.88H336.82V-1.12H333.82V1.88ZM330.268 59.528L332.865 61.0295L330.268 59.528ZM320.38 69.08L321.785 71.7304L321.793 71.7262L321.801 71.7221L320.38 69.08ZM305.692 69.44C300.533 69.44 296.134 68.4049 292.409 66.4296L289.598 71.7304C294.321 74.2351 299.715 75.44 305.692 75.44V69.44ZM292.425 66.4379C288.684 64.4258 285.798 61.6336 283.713 58.0265L278.519 61.0295C281.169 65.6144 284.875 69.1902 289.583 71.7221L292.425 66.4379ZM283.713 58.0265C281.651 54.4593 280.564 50.1793 280.564 45.08H274.564C274.564 51.0527 275.845 56.4047 278.519 61.0295L283.713 58.0265ZM280.564 45.08V1.976H274.564V45.08H280.564ZM277.585 4.97592L290.833 4.87992L290.79 -1.11992L277.542 -1.02393L277.585 4.97592ZM287.812 1.88V44.984H293.812V1.88H287.812ZM287.812 44.984C287.812 47.5982 288.255 50.0587 289.192 52.3231L294.736 50.0289C294.137 48.5813 293.812 46.9138 293.812 44.984H287.812ZM289.192 52.3231C290.102 54.5224 291.372 56.4589 293.01 58.0973L297.253 53.8547C296.204 52.8051 295.362 51.5416 294.736 50.0289L289.192 52.3231ZM293.036 58.1221C294.689 59.7372 296.598 60.9898 298.744 61.8711L301.023 56.3209C299.585 55.7302 298.326 54.9028 297.228 53.8299L293.036 58.1221ZM298.804 61.8948C300.988 62.738 303.292 63.152 305.692 63.152V57.152C303.995 57.152 302.427 56.862 300.964 56.2972L298.804 61.8948ZM305.692 63.152C308.159 63.152 310.502 62.7205 312.688 61.8231L310.408 56.2729C309.009 56.8475 307.448 57.152 305.692 57.152V63.152ZM312.67 61.83C314.855 60.9485 316.782 59.6884 318.421 58.0493L314.178 53.8067C313.13 54.8556 311.889 55.6755 310.425 56.2659L312.67 61.83ZM318.421 58.0493C320.069 56.4014 321.329 54.4508 322.208 52.2339L316.631 50.0221C316.038 51.5172 315.219 52.7666 314.178 53.8067L318.421 58.0493ZM322.192 52.275C323.127 50.0157 323.572 47.5723 323.572 44.984H317.572C317.572 46.8757 317.249 48.5283 316.648 49.9809L322.192 52.275ZM323.572 44.984V1.88H317.572V44.984H323.572ZM320.572 4.88H333.82V-1.12H320.572V4.88ZM330.82 1.88V45.08H336.82V1.88H330.82ZM330.82 45.08C330.82 50.1793 329.733 54.4593 327.671 58.0265L332.865 61.0295C335.539 56.4047 336.82 51.0527 336.82 45.08H330.82ZM327.671 58.0265C325.585 61.6336 322.699 64.4258 318.959 66.4379L321.801 71.7221C326.508 69.1902 330.214 65.6144 332.865 61.0295L327.671 58.0265ZM318.974 66.4296C315.249 68.4049 310.851 69.44 305.692 69.44V75.44C311.669 75.44 317.062 74.2351 321.785 71.7304L318.974 66.4296ZM348.18 71H345.18V74H348.18V71ZM348.18 1.88V-1.12H345.18V1.88H348.18ZM361.236 1.88H364.236V-1.12H361.236V1.88ZM361.236 58.808H358.236V61.808H361.236V58.808ZM390.996 58.808H393.996V55.808H390.996V58.808ZM390.996 71V74H393.996V71H390.996ZM351.18 71V1.88H345.18V71H351.18ZM348.18 4.88H361.236V-1.12H348.18V4.88ZM358.236 1.88V58.808H364.236V1.88H358.236ZM361.236 61.808H390.996V55.808H361.236V61.808ZM387.996 58.808V71H393.996V58.808H387.996ZM390.996 68H348.18V74H390.996V68ZM400.117 71H397.117V74H400.117V71ZM400.117 1.88V-1.12H397.117V1.88H400.117ZM413.173 1.88H416.173V-1.12H413.173V1.88ZM413.173 58.808H410.173V61.808H413.173V58.808ZM442.934 58.808H445.934V55.808H442.934V58.808ZM442.934 71V74H445.934V71H442.934ZM403.117 71V1.88H397.117V71H403.117ZM400.117 4.88H413.173V-1.12H400.117V4.88ZM410.173 1.88V58.808H416.173V1.88H410.173ZM413.173 61.808H442.934V55.808H413.173V61.808ZM439.934 58.808V71H445.934V58.808H439.934ZM442.934 68H400.117V74H442.934V68ZM479.951 71L477.082 70.1233L475.898 74H479.951V71ZM501.071 1.88V-1.12H498.851L498.202 1.00334L501.071 1.88ZM520.559 1.88L523.428 1.00334L522.779 -1.12H520.559V1.88ZM541.679 71V74H545.733L544.548 70.1233L541.679 71ZM528.239 71L525.373 71.8848L526.026 74H528.239V71ZM509.423 10.04V7.03999H505.358L506.557 10.9248L509.423 10.04ZM511.919 10.04L514.79 10.9124L515.967 7.03999H511.919V10.04ZM493.391 71V74H495.615L496.262 71.8724L493.391 71ZM492.623 56.6H489.623V59.6H492.623V56.6ZM492.623 44.408V41.408H489.623V44.408H492.623ZM529.103 44.408H532.103V41.408H529.103V44.408ZM529.103 56.6V59.6H532.103V56.6H529.103ZM482.82 71.8767L503.94 2.75665L498.202 1.00334L477.082 70.1233L482.82 71.8767ZM501.071 4.88H520.559V-1.12H501.071V4.88ZM517.69 2.75665L538.81 71.8767L544.548 70.1233L523.428 1.00334L517.69 2.75665ZM541.679 68H528.239V74H541.679V68ZM531.106 70.1152L512.29 9.1552L506.557 10.9248L525.373 71.8848L531.106 70.1152ZM509.423 13.04H511.919V7.03999H509.423V13.04ZM509.049 9.16759L490.521 70.1276L496.262 71.8724L514.79 10.9124L509.049 9.16759ZM493.391 68H479.951V74H493.391V68ZM495.623 56.6V44.408H489.623V56.6H495.623ZM492.623 47.408H529.103V41.408H492.623V47.408ZM526.103 44.408V56.6H532.103V44.408H526.103ZM529.103 53.6H492.623V59.6H529.103V53.6ZM560.167 67.928L558.619 70.4976L558.626 70.5019L560.167 67.928ZM548.599 55.304L545.913 56.6393L545.916 56.6456L545.919 56.652L548.599 55.304ZM548.599 17.576L545.919 16.228L545.916 16.2344L545.913 16.2407L548.599 17.576ZM560.167 4.952L558.626 2.37806L558.619 2.38243L560.167 4.952ZM598.039 6.34399L596.267 8.76459L596.274 8.76958L598.039 6.34399ZM609.464 22.328L610.265 25.2189L613.295 24.3785L612.314 21.3915L609.464 22.328ZM596.312 25.976L593.442 26.8521L594.296 29.6483L597.113 28.8669L596.312 25.976ZM589.831 16.232L588.004 18.6108L588.011 18.6169L588.019 18.6229L589.831 16.232ZM567.08 15.656L565.422 13.1557L565.415 13.1599L565.409 13.1641L567.08 15.656ZM560.503 23.912L557.732 22.7635L560.503 23.912ZM560.503 48.968L557.732 50.1165L560.503 48.968ZM567.08 57.224L565.409 59.7159L565.415 59.7201L565.422 59.7243L567.08 57.224ZM589.831 56.648L588.004 54.2692L589.831 56.648ZM596.312 46.904L597.113 44.0131L594.302 43.2334L593.444 46.0217L596.312 46.904ZM609.464 50.552L612.314 51.4885L613.295 48.5015L610.265 47.6611L609.464 50.552ZM598.039 66.536L596.274 64.1104L596.267 64.1154L598.039 66.536ZM578.071 69.44C571.603 69.44 566.189 68.0365 561.709 65.3541L558.626 70.5019C564.194 73.8355 570.716 75.44 578.071 75.44V69.44ZM561.716 65.3584C557.228 62.6543 553.756 58.8787 551.28 53.956L545.919 56.652C548.883 62.5453 553.123 67.1857 558.619 70.4976L561.716 65.3584ZM551.286 53.9687C548.839 49.0463 547.568 43.2306 547.568 36.44H541.568C541.568 43.9854 542.984 50.7457 545.913 56.6393L551.286 53.9687ZM547.568 36.44C547.568 29.6494 548.839 23.8337 551.286 18.9113L545.913 16.2407C542.984 22.1343 541.568 28.8946 541.568 36.44H547.568ZM551.28 18.924C553.756 14.0013 557.228 10.2257 561.716 7.52156L558.619 2.38243C553.123 5.69432 548.883 10.3347 545.919 16.228L551.28 18.924ZM561.709 7.52592C566.189 4.84348 571.603 3.44 578.071 3.44V-2.56C570.716 -2.56 564.194 -0.955482 558.626 2.37807L561.709 7.52592ZM578.071 3.44C585.495 3.44 591.498 5.27282 596.267 8.76458L599.812 3.9234C593.829 -0.456827 586.52 -2.56 578.071 -2.56V3.44ZM596.274 8.76958C601.143 12.3133 604.59 17.1058 606.613 23.2645L612.314 21.3915C609.921 14.1102 605.752 8.24672 599.805 3.91841L596.274 8.76958ZM608.662 19.4371L595.51 23.0851L597.113 28.8669L610.265 25.2189L608.662 19.4371ZM599.181 25.0999C597.745 20.3977 595.259 16.5813 591.644 13.8411L588.019 18.6229C590.484 20.4907 592.318 23.1703 593.442 26.8521L599.181 25.0999ZM591.659 13.8532C587.975 11.022 583.363 9.728 578.071 9.728V15.728C582.38 15.728 585.608 16.77 588.004 18.6108L591.659 13.8532ZM578.071 9.728C573.24 9.728 568.964 10.807 565.422 13.1557L568.737 18.1563C571.083 16.601 574.135 15.728 578.071 15.728V9.728ZM565.409 13.1641C561.958 15.4772 559.408 18.72 557.732 22.7635L563.275 25.0605C564.543 22 566.377 19.7388 568.75 18.1479L565.409 13.1641ZM557.732 22.7635C556.077 26.7578 555.295 31.3405 555.295 36.44H561.295C561.295 31.9395 561.986 28.1702 563.275 25.0605L557.732 22.7635ZM555.295 36.44C555.295 41.5395 556.077 46.1222 557.732 50.1165L563.275 47.8195C561.986 44.7098 561.295 40.9405 561.295 36.44H555.295ZM557.732 50.1165C559.408 54.16 561.958 57.4028 565.409 59.7159L568.75 54.7321C566.377 53.1412 564.543 50.88 563.275 47.8195L557.732 50.1165ZM565.422 59.7243C568.964 62.073 573.24 63.152 578.071 63.152V57.152C574.135 57.152 571.083 56.279 568.737 54.7237L565.422 59.7243ZM578.071 63.152C583.363 63.152 587.975 61.858 591.659 59.0268L588.004 54.2692C585.608 56.11 582.38 57.152 578.071 57.152V63.152ZM591.659 59.0268C595.258 56.2618 597.742 52.4572 599.179 47.7863L593.444 46.0217C592.321 49.6708 590.485 52.3622 588.004 54.2692L591.659 59.0268ZM595.51 49.7949L608.662 53.4429L610.265 47.6611L597.113 44.0131L595.51 49.7949ZM606.613 49.6155C604.59 55.7742 601.143 60.5667 596.274 64.1104L599.805 68.9616C605.752 64.6333 609.921 58.7698 612.314 51.4885L606.613 49.6155ZM596.267 64.1154C591.498 67.6072 585.495 69.44 578.071 69.44V75.44C586.52 75.44 593.829 73.3368 599.812 68.9566L596.267 64.1154ZM631.792 67.928L630.244 70.4976L630.251 70.5019L631.792 67.928ZM620.224 55.304L617.538 56.6393L617.541 56.6456L617.544 56.652L620.224 55.304ZM620.224 17.576L617.544 16.228L617.541 16.2344L617.538 16.2407L620.224 17.576ZM631.792 4.952L630.251 2.37806L630.244 2.38243L631.792 4.952ZM669.664 6.34399L667.892 8.76459L667.899 8.76958L669.664 6.34399ZM681.089 22.328L681.89 25.2189L684.92 24.3785L683.939 21.3915L681.089 22.328ZM667.937 25.976L665.067 26.8521L665.921 29.6483L668.738 28.8669L667.937 25.976ZM661.456 16.232L659.629 18.6108L659.636 18.6169L659.644 18.6229L661.456 16.232ZM638.705 15.656L637.047 13.1557L637.04 13.1599L637.034 13.1641L638.705 15.656ZM632.128 23.912L629.357 22.7635L632.128 23.912ZM632.128 48.968L629.357 50.1165L632.128 48.968ZM638.705 57.224L637.034 59.7159L637.04 59.7201L637.047 59.7243L638.705 57.224ZM661.456 56.648L659.629 54.2692L661.456 56.648ZM667.937 46.904L668.738 44.0131L665.927 43.2334L665.069 46.0217L667.937 46.904ZM681.089 50.552L683.939 51.4885L684.92 48.5015L681.89 47.6611L681.089 50.552ZM669.664 66.536L667.899 64.1104L667.892 64.1154L669.664 66.536ZM649.696 69.44C643.228 69.44 637.814 68.0365 633.334 65.3541L630.251 70.5019C635.819 73.8355 642.341 75.44 649.696 75.44V69.44ZM633.341 65.3584C628.853 62.6543 625.381 58.8787 622.905 53.956L617.544 56.652C620.508 62.5453 624.748 67.1857 630.244 70.4976L633.341 65.3584ZM622.911 53.9687C620.464 49.0463 619.193 43.2306 619.193 36.44H613.193C613.193 43.9854 614.609 50.7457 617.538 56.6393L622.911 53.9687ZM619.193 36.44C619.193 29.6494 620.464 23.8337 622.911 18.9113L617.538 16.2407C614.609 22.1343 613.193 28.8946 613.193 36.44H619.193ZM622.905 18.924C625.381 14.0013 628.853 10.2257 633.341 7.52156L630.244 2.38243C624.748 5.69432 620.508 10.3347 617.544 16.228L622.905 18.924ZM633.334 7.52592C637.814 4.84348 643.228 3.44 649.696 3.44V-2.56C642.341 -2.56 635.819 -0.955482 630.251 2.37807L633.334 7.52592ZM649.696 3.44C657.12 3.44 663.123 5.27282 667.892 8.76458L671.437 3.9234C665.454 -0.456827 658.145 -2.56 649.696 -2.56V3.44ZM667.899 8.76958C672.768 12.3133 676.215 17.1058 678.238 23.2645L683.939 21.3915C681.546 14.1102 677.377 8.24672 671.43 3.91841L667.899 8.76958ZM680.287 19.4371L667.135 23.0851L668.738 28.8669L681.89 25.2189L680.287 19.4371ZM670.806 25.0999C669.37 20.3977 666.884 16.5813 663.269 13.8411L659.644 18.6229C662.109 20.4907 663.943 23.1703 665.067 26.8521L670.806 25.0999ZM663.284 13.8532C659.6 11.022 654.988 9.728 649.696 9.728V15.728C654.005 15.728 657.233 16.77 659.629 18.6108L663.284 13.8532ZM649.696 9.728C644.865 9.728 640.589 10.807 637.047 13.1557L640.362 18.1563C642.708 16.601 645.76 15.728 649.696 15.728V9.728ZM637.034 13.1641C633.583 15.4772 631.033 18.72 629.357 22.7635L634.9 25.0605C636.168 22 638.002 19.7388 640.375 18.1479L637.034 13.1641ZM629.357 22.7635C627.702 26.7578 626.92 31.3405 626.92 36.44H632.92C632.92 31.9395 633.611 28.1702 634.9 25.0605L629.357 22.7635ZM626.92 36.44C626.92 41.5395 627.702 46.1222 629.357 50.1165L634.9 47.8195C633.611 44.7098 632.92 40.9405 632.92 36.44H626.92ZM629.357 50.1165C631.033 54.16 633.583 57.4028 637.034 59.7159L640.375 54.7321C638.002 53.1412 636.168 50.88 634.9 47.8195L629.357 50.1165ZM637.047 59.7243C640.589 62.073 644.865 63.152 649.696 63.152V57.152C645.76 57.152 642.708 56.279 640.362 54.7237L637.047 59.7243ZM649.696 63.152C654.988 63.152 659.6 61.858 663.284 59.0268L659.629 54.2692C657.233 56.11 654.005 57.152 649.696 57.152V63.152ZM663.284 59.0268C666.883 56.2618 669.367 52.4572 670.804 47.7863L665.069 46.0217C663.946 49.6708 662.11 52.3622 659.629 54.2692L663.284 59.0268ZM667.135 49.7949L680.287 53.4429L681.89 47.6611L668.738 44.0131L667.135 49.7949ZM678.238 49.6155C676.215 55.7742 672.768 60.5667 667.899 64.1104L671.43 68.9616C677.377 64.6333 681.546 58.7698 683.939 51.4885L678.238 49.6155ZM667.892 64.1154C663.123 67.6072 657.12 69.44 649.696 69.44V75.44C658.145 75.44 665.454 73.3368 671.437 68.9566L667.892 64.1154ZM691.657 71H688.657V74H691.657V71ZM691.657 1.88V-1.12H688.657V1.88H691.657ZM736.778 1.88H739.778V-1.12H736.778V1.88ZM736.778 14.072V17.072H739.778V14.072H736.778ZM704.714 14.072V11.072H701.714V14.072H704.714ZM704.714 28.856H701.714V31.856H704.714V28.856ZM731.018 28.856H734.018V25.856H731.018V28.856ZM731.018 41.048V44.048H734.018V41.048H731.018ZM704.714 41.048V38.048H701.714V41.048H704.714ZM704.714 58.808H701.714V61.808H704.714V58.808ZM736.778 58.808H739.778V55.808H736.778V58.808ZM736.778 71V74H739.778V71H736.778ZM694.657 71V1.88H688.657V71H694.657ZM691.657 4.88H736.778V-1.12H691.657V4.88ZM733.778 1.88V14.072H739.778V1.88H733.778ZM736.778 11.072H704.714V17.072H736.778V11.072ZM701.714 14.072V28.856H707.714V14.072H701.714ZM704.714 31.856H731.018V25.856H704.714V31.856ZM728.018 28.856V41.048H734.018V28.856H728.018ZM731.018 38.048H704.714V44.048H731.018V38.048ZM701.714 41.048V58.808H707.714V41.048H701.714ZM704.714 61.808H736.778V55.808H704.714V61.808ZM733.778 58.808V71H739.778V58.808H733.778ZM736.778 68H691.657V74H736.778V68ZM760.523 69.752L759.302 72.4926L759.315 72.4983L759.328 72.5039L760.523 69.752ZM750.395 61.976L748.022 63.8116L748.031 63.8241L748.041 63.8364L750.395 61.976ZM745.403 49.88L744.964 46.9123L741.988 47.3524L742.436 50.327L745.403 49.88ZM759.034 47.864L761.95 47.1585L761.306 44.4954L758.596 44.8963L759.034 47.864ZM764.987 57.032L766.728 54.589L764.987 57.032ZM781.498 59.24L780.55 56.394L781.498 59.24ZM786.443 56.264L784.321 54.1427L784.308 54.1558L784.295 54.169L786.443 56.264ZM788.075 49.4L785.19 50.2242L785.214 50.3084L785.243 50.3911L788.075 49.4ZM787.067 47.528L789.371 45.6074L787.067 47.528ZM785.003 45.896L783.473 48.4769L783.493 48.489L783.514 48.5007L785.003 45.896ZM781.69 44.504L782.578 41.6381L782.557 41.6319L782.537 41.6259L781.69 44.504ZM763.739 39.224L764.585 36.3459L764.574 36.3426L764.563 36.3394L763.739 39.224ZM759.034 37.592L757.92 40.3774L757.929 40.3809L757.938 40.3843L759.034 37.592ZM753.898 34.568L755.756 32.2122L753.898 34.568ZM749.722 29.384L747.039 30.7256L747.051 30.7495L747.063 30.7731L749.722 29.384ZM751.594 9.608L753.982 11.4239L751.594 9.608ZM760.955 2.744L762.033 5.54344L760.955 2.744ZM773.914 0.535997L773.955 -2.46373L773.945 -2.46387L773.935 -2.46393L773.914 0.535997ZM786.682 2.984L787.841 0.216871L786.682 2.984ZM796.091 9.848L793.794 11.7781L793.799 11.7842L793.804 11.7902L796.091 9.848ZM801.562 20.792L802.065 23.7495L805.286 23.2018L804.466 20.0391L801.562 20.792ZM787.451 23.192L784.526 23.8605L785.158 26.625L787.953 26.1495L787.451 23.192ZM784.619 17.528L782.384 19.5297V19.5297L784.619 17.528ZM779.674 14.024L778.504 16.7863L778.512 16.7898L778.521 16.7932L779.674 14.024ZM773.722 12.728L773.629 15.7265L773.63 15.7266L773.722 12.728ZM767.914 13.592L768.878 16.4329L768.893 16.4279L768.908 16.4228L767.914 13.592ZM763.498 16.28L761.348 14.1879L761.334 14.2031L761.319 14.2184L763.498 16.28ZM763.211 24.2L761.054 26.2851L761.071 26.3033L761.089 26.3213L763.211 24.2ZM766.714 26.456L767.85 23.6794V23.6794L766.714 26.456ZM771.034 27.896L771.822 25.0012L771.807 24.9971L771.792 24.9931L771.034 27.896ZM783.034 31.16L782.247 34.0548L782.258 34.0578L783.034 31.16ZM788.987 33.08L787.951 35.8957L787.97 35.9025L787.988 35.909L788.987 33.08ZM795.227 36.344L793.49 38.7905L793.513 38.8064L793.535 38.8218L795.227 36.344ZM800.171 41.816L797.557 43.2885L797.565 43.3024L797.573 43.3162L800.171 41.816ZM799.786 60.2L797.173 58.7278L797.167 58.7379L799.786 60.2ZM793.547 67.064L795.238 69.5414L795.249 69.5344L795.259 69.5273L793.547 67.064ZM784.619 71.096L783.839 68.1991L783.832 68.2011L784.619 71.096ZM774.395 69.44C769.629 69.44 765.42 68.6074 761.717 67.0001L759.328 72.5039C763.881 74.4806 768.92 75.44 774.395 75.44V69.44ZM761.743 67.0115C758.069 65.3753 755.089 63.0769 752.748 60.1156L748.041 63.8364C751.012 67.5951 754.784 70.4807 759.302 72.4926L761.743 67.0115ZM752.767 60.1404C750.487 57.1932 749.005 53.6518 748.369 49.433L742.436 50.327C743.208 55.4522 745.054 59.9748 748.022 63.8116L752.767 60.1404ZM745.841 52.8477L759.473 50.8317L758.596 44.8963L744.964 46.9123L745.841 52.8477ZM756.119 48.5695C757.229 53.1598 759.586 56.8669 763.245 59.475L766.728 54.589C764.371 52.9091 762.76 50.5042 761.95 47.1585L756.119 48.5695ZM763.245 59.475C766.783 61.9963 770.821 63.248 775.258 63.248V57.248C772.016 57.248 769.206 56.3558 766.728 54.589L763.245 59.475ZM775.258 63.248C777.722 63.248 780.122 62.8609 782.447 62.0861L780.55 56.394C778.842 56.9631 777.083 57.248 775.258 57.248V63.248ZM782.447 62.0861C784.844 61.287 786.926 60.0641 788.59 58.359L784.295 54.169C783.399 55.0879 782.185 55.849 780.55 56.394L782.447 62.0861ZM788.564 58.3853C790.46 56.4892 791.411 54.1007 791.411 51.416H785.411C785.411 52.5713 785.049 53.4148 784.321 54.1427L788.564 58.3853ZM791.411 51.416C791.411 50.3876 791.246 49.3796 790.906 48.4089L785.243 50.3911C785.351 50.7004 785.411 51.0364 785.411 51.416H791.411ZM790.959 48.5758C790.644 47.4733 790.099 46.4808 789.371 45.6074L784.762 49.4485C784.994 49.7272 785.121 49.9827 785.19 50.2242L790.959 48.5758ZM789.371 45.6074C788.594 44.6744 787.589 43.9187 786.491 43.2913L783.514 48.5007C784.208 48.8973 784.579 49.2296 784.762 49.4486L789.371 45.6074ZM786.532 43.3151C785.403 42.6462 784.064 42.0982 782.578 41.6381L780.803 47.3699C782.005 47.7418 782.874 48.1218 783.473 48.4769L786.532 43.3151ZM782.537 41.6259L764.585 36.3459L762.892 42.1021L780.844 47.3821L782.537 41.6259ZM764.563 36.3394C763.338 35.9895 761.865 35.4807 760.131 34.7997L757.938 40.3843C759.788 41.1113 761.451 41.6905 762.914 42.1086L764.563 36.3394ZM760.149 34.8066C758.685 34.2211 757.22 33.3668 755.756 32.2122L752.041 36.9238C753.905 38.3932 755.864 39.5549 757.92 40.3774L760.149 34.8066ZM755.756 32.2122C754.468 31.1969 753.333 29.8167 752.382 27.9949L747.063 30.7731C748.352 33.2393 750.001 35.3151 752.041 36.9238L755.756 32.2122ZM752.406 28.0424C751.586 26.4038 751.091 24.1634 751.091 21.176H745.091C745.091 24.7806 745.682 28.0122 747.039 30.7256L752.406 28.0424ZM751.091 21.176C751.091 17.0553 752.119 13.8746 753.982 11.4239L749.206 7.79212C746.398 11.4854 745.091 16.0167 745.091 21.176H751.091ZM753.982 11.4239C755.953 8.83195 758.603 6.86484 762.033 5.54344L759.876 -0.0554485C755.498 1.63115 751.908 4.24004 749.206 7.79212L753.982 11.4239ZM762.033 5.54344C765.543 4.1911 769.485 3.50613 773.894 3.53593L773.935 -2.46393C768.872 -2.49814 764.174 -1.71111 759.876 -0.0554466L762.033 5.54344ZM773.874 3.53573C778.324 3.59546 782.19 4.35515 785.524 5.75113L787.841 0.216871C783.687 -1.52315 779.041 -2.39546 773.955 -2.46373L773.874 3.53573ZM785.524 5.75113C788.842 7.14097 791.583 9.14802 793.794 11.7781L798.387 7.91785C795.542 4.53198 792.011 1.96303 787.841 0.216871L785.524 5.75113ZM793.804 11.7902C796 14.3752 797.636 17.6001 798.659 21.5449L804.466 20.0391C803.249 15.3439 801.237 11.2728 798.377 7.90577L793.804 11.7902ZM801.06 17.8345L786.948 20.2345L787.953 26.1495L802.065 23.7495L801.06 17.8345ZM790.375 22.5235C789.763 19.8455 788.606 17.4828 786.853 15.5262L782.384 19.5297C783.383 20.6452 784.114 22.0584 784.526 23.8605L790.375 22.5235ZM786.853 15.5263C785.176 13.6541 783.158 12.2253 780.828 11.2548L778.521 16.7932C780.031 17.4227 781.309 18.3299 782.384 19.5297L786.853 15.5263ZM780.845 11.2617C778.61 10.3148 776.26 9.80466 773.815 9.72942L773.63 15.7266C775.345 15.7793 776.963 16.1332 778.504 16.7863L780.845 11.2617ZM773.816 9.72946C771.421 9.65461 769.115 9.99157 766.921 10.7612L768.908 16.4228C770.362 15.9124 771.928 15.6734 773.629 15.7265L773.816 9.72946ZM766.951 10.7511C764.775 11.4891 762.876 12.6176 761.348 14.1879L765.649 18.3721C766.425 17.5744 767.47 16.9109 768.878 16.4329L766.951 10.7511ZM761.319 14.2184C759.671 15.9603 758.818 18.1063 758.818 20.504H764.818C764.818 19.6377 765.086 18.9677 765.678 18.3416L761.319 14.2184ZM758.818 20.504C758.818 22.6793 759.515 24.6933 761.054 26.2851L765.367 22.1149C765.05 21.7867 764.818 21.3367 764.818 20.504H758.818ZM761.089 26.3213C762.34 27.5722 763.86 28.5295 765.579 29.2326L767.85 23.6794C766.753 23.2304 765.937 22.6838 765.332 22.0787L761.089 26.3213ZM765.579 29.2326C767.11 29.8591 768.676 30.3812 770.277 30.7989L771.792 24.9931C770.449 24.6428 769.135 24.2049 767.85 23.6794L765.579 29.2326ZM770.247 30.7908L782.247 34.0548L783.822 28.2652L771.822 25.0012L770.247 30.7908ZM782.258 34.0578C783.944 34.5095 785.84 35.1197 787.951 35.8957L790.022 30.2643C787.781 29.4403 785.709 28.7705 783.811 28.2622L782.258 34.0578ZM787.988 35.909C789.888 36.5794 791.721 37.5349 793.49 38.7905L796.963 33.8975C794.764 32.3371 792.437 31.1166 789.985 30.251L787.988 35.909ZM793.535 38.8218C795.145 39.9205 796.487 41.39 797.557 43.2885L802.784 40.3435C801.294 37.698 799.34 35.5195 796.918 33.8661L793.535 38.8218ZM797.573 43.3162C798.548 45.0059 799.138 47.3268 799.138 50.456H805.138C805.138 46.6092 804.417 43.1701 802.768 40.3158L797.573 43.3162ZM799.138 50.456C799.138 53.7364 798.449 56.4612 797.173 58.7278L802.4 61.6722C804.26 58.3708 805.138 54.5996 805.138 50.456H799.138ZM797.167 58.7379C795.856 61.0858 794.089 63.0333 791.834 64.6007L795.259 69.5273C798.252 67.4467 800.645 64.8182 802.406 61.6621L797.167 58.7379ZM791.855 64.5866C789.531 66.1731 786.869 67.3833 783.839 68.1992L785.398 73.9928C789.024 73.0167 792.313 71.5389 795.238 69.5414L791.855 64.5866ZM783.832 68.2011C780.8 69.0252 777.657 69.44 774.395 69.44V75.44C778.172 75.44 781.845 74.9588 785.405 73.9909L783.832 68.2011ZM826.335 69.752L825.115 72.4926L825.127 72.4983L825.14 72.5039L826.335 69.752ZM816.207 61.976L813.834 63.8116L813.844 63.8241L813.854 63.8364L816.207 61.976ZM811.215 49.88L810.776 46.9123L807.8 47.3524L808.248 50.327L811.215 49.88ZM824.847 47.864L827.763 47.1585L827.119 44.4954L824.408 44.8963L824.847 47.864ZM830.799 57.032L832.54 54.589L830.799 57.032ZM847.311 59.24L846.362 56.394L847.311 59.24ZM852.255 56.264L850.134 54.1427L850.121 54.1558L850.108 54.169L852.255 56.264ZM853.887 49.4L851.002 50.2242L851.026 50.3084L851.055 50.3911L853.887 49.4ZM852.879 47.528L855.184 45.6074L852.879 47.528ZM850.815 45.896L849.286 48.4769L849.306 48.489L849.327 48.5007L850.815 45.896ZM847.503 44.504L848.39 41.6381L848.37 41.6319L848.349 41.6259L847.503 44.504ZM829.551 39.224L830.398 36.3459L830.386 36.3426L830.375 36.3394L829.551 39.224ZM824.847 37.592L823.733 40.3774L823.741 40.3809L823.75 40.3843L824.847 37.592ZM819.711 34.568L821.568 32.2122L819.711 34.568ZM815.535 29.384L812.852 30.7256L812.864 30.7495L812.876 30.7731L815.535 29.384ZM817.407 9.608L819.795 11.4239L817.407 9.608ZM826.767 2.744L827.845 5.54344L826.767 2.744ZM839.727 0.535997L839.767 -2.46373L839.757 -2.46387L839.747 -2.46393L839.727 0.535997ZM852.495 2.984L853.654 0.216871L852.495 2.984ZM861.903 9.848L859.606 11.7781L859.611 11.7842L859.617 11.7902L861.903 9.848ZM867.375 20.792L867.878 23.7495L871.099 23.2018L870.279 20.0391L867.375 20.792ZM853.263 23.192L850.338 23.8605L850.97 26.625L853.766 26.1495L853.263 23.192ZM850.431 17.528L848.196 19.5297V19.5297L850.431 17.528ZM845.487 14.024L844.317 16.7863L844.325 16.7898L844.333 16.7932L845.487 14.024ZM839.535 12.728L839.441 15.7265L839.443 15.7266L839.535 12.728ZM833.727 13.592L834.691 16.4329L834.706 16.4279L834.72 16.4228L833.727 13.592ZM829.311 16.28L827.161 14.1879L827.146 14.2031L827.132 14.2184L829.311 16.28ZM829.023 24.2L826.866 26.2851L826.884 26.3033L826.902 26.3213L829.023 24.2ZM832.527 26.456L833.663 23.6794V23.6794L832.527 26.456ZM836.847 27.896L837.634 25.0012L837.619 24.9971L837.604 24.9931L836.847 27.896ZM848.847 31.16L848.06 34.0548L848.071 34.0578L848.847 31.16ZM854.799 33.08L853.764 35.8957L853.782 35.9025L853.801 35.909L854.799 33.08ZM861.039 36.344L859.303 38.7905L859.325 38.8064L859.348 38.8218L861.039 36.344ZM865.983 41.816L863.369 43.2885L863.377 43.3024L863.385 43.3162L865.983 41.816ZM865.599 60.2L862.985 58.7278L862.979 58.7379L865.599 60.2ZM859.359 67.064L861.051 69.5414L861.061 69.5344L861.071 69.5273L859.359 67.064ZM850.431 71.096L849.651 68.1991L849.644 68.2011L850.431 71.096ZM840.207 69.44C835.442 69.44 831.232 68.6074 827.53 67.0001L825.14 72.5039C829.694 74.4806 834.732 75.44 840.207 75.44V69.44ZM827.555 67.0115C823.881 65.3753 820.901 63.0769 818.56 60.1156L813.854 63.8364C816.825 67.5951 820.597 70.4807 825.115 72.4926L827.555 67.0115ZM818.58 60.1404C816.3 57.1932 814.817 53.6518 814.182 49.433L808.248 50.327C809.021 55.4522 810.866 59.9748 813.834 63.8116L818.58 60.1404ZM811.654 52.8477L825.286 50.8317L824.408 44.8963L810.776 46.9123L811.654 52.8477ZM821.931 48.5695C823.042 53.1598 825.399 56.8669 829.058 59.475L832.54 54.589C830.183 52.9091 828.572 50.5042 827.763 47.1585L821.931 48.5695ZM829.058 59.475C832.595 61.9963 836.633 63.248 841.071 63.248V57.248C837.829 57.248 835.019 56.3558 832.54 54.589L829.058 59.475ZM841.071 63.248C843.535 63.248 845.935 62.8609 848.26 62.0861L846.362 56.394C844.655 56.9631 842.896 57.248 841.071 57.248V63.248ZM848.26 62.0861C850.657 61.287 852.739 60.0641 854.402 58.359L850.108 54.169C849.211 55.0879 847.997 55.849 846.362 56.394L848.26 62.0861ZM854.376 58.3853C856.272 56.4892 857.223 54.1007 857.223 51.416H851.223C851.223 52.5713 850.862 53.4148 850.134 54.1427L854.376 58.3853ZM857.223 51.416C857.223 50.3876 857.058 49.3796 856.719 48.4089L851.055 50.3911C851.164 50.7004 851.223 51.0364 851.223 51.416H857.223ZM856.772 48.5758C856.457 47.4733 855.911 46.4808 855.184 45.6074L850.574 49.4485C850.807 49.7272 850.933 49.9827 851.002 50.2242L856.772 48.5758ZM855.184 45.6074C854.406 44.6744 853.401 43.9187 852.303 43.2913L849.327 48.5007C850.021 48.8973 850.392 49.2296 850.574 49.4486L855.184 45.6074ZM852.344 43.3151C851.216 42.6462 849.877 42.0982 848.39 41.6381L846.616 47.3699C847.818 47.7418 848.686 48.1218 849.286 48.4769L852.344 43.3151ZM848.349 41.6259L830.398 36.3459L828.705 42.1021L846.656 47.3821L848.349 41.6259ZM830.375 36.3394C829.151 35.9895 827.677 35.4807 825.944 34.7997L823.75 40.3843C825.601 41.1113 827.263 41.6905 828.727 42.1086L830.375 36.3394ZM825.961 34.8066C824.498 34.2211 823.033 33.3668 821.568 32.2122L817.854 36.9238C819.717 38.3932 821.676 39.5549 823.733 40.3774L825.961 34.8066ZM821.568 32.2122C820.281 31.1969 819.146 29.8167 818.194 27.9949L812.876 30.7731C814.164 33.2393 815.813 35.3151 817.854 36.9238L821.568 32.2122ZM818.218 28.0424C817.399 26.4038 816.903 24.1634 816.903 21.176H810.903C810.903 24.7806 811.495 28.0122 812.852 30.7256L818.218 28.0424ZM816.903 21.176C816.903 17.0553 817.931 13.8746 819.795 11.4239L815.019 7.79212C812.211 11.4854 810.903 16.0167 810.903 21.176H816.903ZM819.795 11.4239C821.766 8.83195 824.415 6.86484 827.845 5.54344L825.689 -0.0554485C821.311 1.63115 817.72 4.24004 815.019 7.79212L819.795 11.4239ZM827.845 5.54344C831.356 4.1911 835.297 3.50613 839.707 3.53593L839.747 -2.46393C834.685 -2.49814 829.986 -1.71111 825.689 -0.0554466L827.845 5.54344ZM839.687 3.53573C844.136 3.59546 848.003 4.35515 851.336 5.75113L853.654 0.216871C849.499 -1.52315 844.854 -2.39546 839.767 -2.46373L839.687 3.53573ZM851.336 5.75113C854.655 7.14097 857.396 9.14802 859.606 11.7781L864.2 7.91785C861.354 4.53198 857.823 1.96303 853.654 0.216871L851.336 5.75113ZM859.617 11.7902C861.812 14.3752 863.448 17.6001 864.471 21.5449L870.279 20.0391C869.062 15.3439 867.05 11.2728 864.189 7.90577L859.617 11.7902ZM866.872 17.8345L852.76 20.2345L853.766 26.1495L867.878 23.7495L866.872 17.8345ZM856.188 22.5235C855.575 19.8455 854.418 17.4828 852.666 15.5262L848.196 19.5297C849.196 20.6452 849.927 22.0584 850.338 23.8605L856.188 22.5235ZM852.666 15.5263C850.988 13.6541 848.97 12.2253 846.641 11.2548L844.333 16.7932C845.844 17.4227 847.122 18.3299 848.196 19.5297L852.666 15.5263ZM846.657 11.2617C844.423 10.3148 842.073 9.80466 839.627 9.72942L839.443 15.7266C841.157 15.7793 842.775 16.1332 844.317 16.7863L846.657 11.2617ZM839.629 9.72946C837.234 9.65461 834.927 9.99157 832.734 10.7612L834.72 16.4228C836.175 15.9124 837.74 15.6734 839.441 15.7265L839.629 9.72946ZM832.763 10.7511C830.588 11.4891 828.689 12.6176 827.161 14.1879L831.461 18.3721C832.237 17.5744 833.282 16.9109 834.691 16.4329L832.763 10.7511ZM827.132 14.2184C825.484 15.9603 824.631 18.1063 824.631 20.504H830.631C830.631 19.6377 830.898 18.9677 831.49 18.3416L827.132 14.2184ZM824.631 20.504C824.631 22.6793 825.327 24.6933 826.866 26.2851L831.18 22.1149C830.863 21.7867 830.631 21.3367 830.631 20.504H824.631ZM826.902 26.3213C828.153 27.5722 829.672 28.5295 831.391 29.2326L833.663 23.6794C832.566 23.2304 831.749 22.6838 831.144 22.0787L826.902 26.3213ZM831.391 29.2326C832.922 29.8591 834.489 30.3812 836.09 30.7989L837.604 24.9931C836.261 24.6428 834.948 24.2049 833.663 23.6794L831.391 29.2326ZM836.06 30.7908L848.06 34.0548L849.634 28.2652L837.634 25.0012L836.06 30.7908ZM848.071 34.0578C849.757 34.5095 851.653 35.1197 853.764 35.8957L855.834 30.2643C853.593 29.4403 851.521 28.7705 849.623 28.2622L848.071 34.0578ZM853.801 35.909C855.7 36.5794 857.533 37.5349 859.303 38.7905L862.775 33.8975C860.577 32.3371 858.25 31.1166 855.797 30.251L853.801 35.909ZM859.348 38.8218C860.957 39.9205 862.3 41.39 863.369 43.2885L868.597 40.3435C867.106 37.698 865.153 35.5195 862.73 33.8661L859.348 38.8218ZM863.385 43.3162C864.361 45.0059 864.951 47.3268 864.951 50.456H870.951C870.951 46.6092 870.229 43.1701 868.581 40.3158L863.385 43.3162ZM864.951 50.456C864.951 53.7364 864.262 56.4612 862.985 58.7278L868.213 61.6722C870.072 58.3708 870.951 54.5996 870.951 50.456H864.951ZM862.979 58.7379C861.669 61.0858 859.901 63.0333 857.647 64.6007L861.071 69.5273C864.065 67.4467 866.457 64.8182 868.219 61.6621L862.979 58.7379ZM857.667 64.5866C855.344 66.1731 852.681 67.3833 849.651 68.1992L851.211 73.9928C854.837 73.0167 858.126 71.5389 861.051 69.5414L857.667 64.5866ZM849.644 68.2011C846.612 69.0252 843.469 69.44 840.207 69.44V75.44C843.985 75.44 847.658 74.9588 851.218 73.9909L849.644 68.2011ZM916.939 71H913.939V74H916.939V71ZM916.939 1.88V-1.12H913.939V1.88H916.939ZM930.187 1.88L932.7 0.241354L931.812 -1.12H930.187V1.88ZM960.235 47.96L957.722 49.5986L963.235 58.053V47.96H960.235ZM960.235 1.88V-1.12H957.235V1.88H960.235ZM973.483 1.88H976.483V-1.12H973.483V1.88ZM973.483 71V74H976.483V71H973.483ZM960.235 71L957.722 72.6386L958.61 74H960.235V71ZM930.187 24.92L932.7 23.2814L927.187 14.827V24.92H930.187ZM930.187 71V74H933.187V71H930.187ZM919.939 71V1.88H913.939V71H919.939ZM916.939 4.88H930.187V-1.12H916.939V4.88ZM927.674 3.51864L957.722 49.5986L962.748 46.3214L932.7 0.241354L927.674 3.51864ZM963.235 47.96V1.88H957.235V47.96H963.235ZM960.235 4.88H973.483V-1.12H960.235V4.88ZM970.483 1.88V71H976.483V1.88H970.483ZM973.483 68H960.235V74H973.483V68ZM962.748 69.3614L932.7 23.2814L927.674 26.5586L957.722 72.6386L962.748 69.3614ZM927.187 24.92V71H933.187V24.92H927.187ZM930.187 68H916.939V74H930.187V68ZM998.636 67.928L997.088 70.4976L997.095 70.5019L998.636 67.928ZM987.068 55.304L984.382 56.6393L984.385 56.6456L984.388 56.652L987.068 55.304ZM987.068 17.576L984.388 16.228L984.385 16.2344L984.382 16.2407L987.068 17.576ZM998.636 4.952L997.095 2.37806L997.088 2.38243L998.636 4.952ZM1034.4 4.952L1032.85 7.52158L1032.86 7.52592L1034.4 4.952ZM1045.96 17.576L1043.28 18.9113L1043.28 18.9176L1043.28 18.924L1045.96 17.576ZM1045.96 55.304L1043.28 53.956L1043.28 53.9624L1043.28 53.9687L1045.96 55.304ZM1034.4 67.928L1032.86 65.3541L1032.85 65.3584L1034.4 67.928ZM1016.54 60.152L1016.5 63.1517L1016.54 60.152ZM1027.48 57.32L1029.15 59.8119L1027.48 57.32ZM1034.01 49.016L1031.24 47.8762L1031.23 47.8869L1031.23 47.8975L1034.01 49.016ZM1034.01 23.96L1031.24 25.0959L1031.24 25.1067L1031.24 25.1174L1034.01 23.96ZM1027.48 15.752L1029.15 13.2601V13.2601L1027.48 15.752ZM1016.54 12.728L1016.58 9.72831L1016.54 12.728ZM999.02 23.864L996.245 22.7242L996.241 22.7349L996.237 22.7455L999.02 23.864ZM999.02 48.92L996.244 50.0559L996.248 50.0667L996.253 50.0774L999.02 48.92ZM1005.6 57.128L1003.93 59.6199L1005.6 57.128ZM1016.54 69.44C1010.07 69.44 1004.66 68.0365 1000.18 65.3541L997.095 70.5019C1002.66 73.8355 1009.18 75.44 1016.54 75.44V69.44ZM1000.18 65.3584C995.697 62.6543 992.224 58.8787 989.748 53.956L984.388 56.652C987.352 62.5453 991.592 67.1857 997.088 70.4976L1000.18 65.3584ZM989.755 53.9687C987.308 49.0463 986.036 43.2306 986.036 36.44H980.036C980.036 43.9854 981.452 50.7457 984.382 56.6393L989.755 53.9687ZM986.036 36.44C986.036 29.6494 987.308 23.8337 989.755 18.9113L984.382 16.2407C981.452 22.1343 980.036 28.8946 980.036 36.44H986.036ZM989.748 18.924C992.224 14.0013 995.697 10.2257 1000.18 7.52156L997.088 2.38243C991.592 5.69432 987.352 10.3347 984.388 16.228L989.748 18.924ZM1000.18 7.52592C1004.66 4.84348 1010.07 3.44 1016.54 3.44V-2.56C1009.18 -2.56 1002.66 -0.955482 997.095 2.37807L1000.18 7.52592ZM1016.54 3.44C1023.01 3.44 1028.4 4.84369 1032.85 7.52156L1035.94 2.38243C1030.4 -0.955688 1023.9 -2.56 1016.54 -2.56V3.44ZM1032.86 7.52592C1037.37 10.2295 1040.84 14.0002 1043.28 18.9113L1048.65 16.2407C1045.72 10.3358 1041.47 5.6905 1035.94 2.37807L1032.86 7.52592ZM1043.28 18.924C1045.76 23.8434 1047.04 29.6544 1047.04 36.44H1053.04C1053.04 28.8896 1051.61 22.1246 1048.64 16.228L1043.28 18.924ZM1047.04 36.44C1047.04 43.2256 1045.76 49.0366 1043.28 53.956L1048.64 56.652C1051.61 50.7554 1053.04 43.9904 1053.04 36.44H1047.04ZM1043.28 53.9687C1040.84 58.8798 1037.37 62.6505 1032.86 65.3541L1035.94 70.5019C1041.47 67.1895 1045.72 62.5442 1048.65 56.6393L1043.28 53.9687ZM1032.85 65.3584C1028.4 68.0363 1023.01 69.44 1016.54 69.44V75.44C1023.9 75.44 1030.4 73.8357 1035.94 70.4976L1032.85 65.3584ZM1016.5 63.1517C1021.34 63.2223 1025.62 62.18 1029.15 59.8119L1025.81 54.8281C1023.52 56.364 1020.51 57.2097 1016.58 57.1523L1016.5 63.1517ZM1029.15 59.8119C1032.62 57.4904 1035.16 54.2183 1036.8 50.1345L1031.23 47.8975C1029.99 50.9817 1028.17 53.2456 1025.81 54.8281L1029.15 59.8119ZM1036.79 50.1558C1038.44 46.135 1039.22 41.5405 1039.22 36.44H1033.22C1033.22 40.9395 1032.53 44.729 1031.24 47.8762L1036.79 50.1558ZM1039.22 36.44C1039.22 31.3415 1038.44 26.7706 1036.78 22.8026L1031.24 25.1174C1032.53 28.1894 1033.22 31.9385 1033.22 36.44H1039.22ZM1036.79 22.8241C1035.14 18.8012 1032.6 15.5724 1029.15 13.2601L1025.81 18.2439C1028.19 19.8356 1030 22.0788 1031.24 25.0959L1036.79 22.8241ZM1029.15 13.2601C1025.65 10.9128 1021.4 9.79866 1016.58 9.72831L1016.5 15.7277C1020.45 15.7853 1023.49 16.6872 1025.81 18.2439L1029.15 13.2601ZM1016.58 9.72831C1011.74 9.65766 1007.46 10.7 1003.93 13.0681L1007.27 18.0519C1009.56 16.516 1012.57 15.6703 1016.5 15.7277L1016.58 9.72831ZM1003.93 13.0681C1000.47 15.3858 997.918 18.6502 996.245 22.7242L1001.8 25.0038C1003.07 21.9098 1004.9 19.6382 1007.27 18.0519L1003.93 13.0681ZM996.237 22.7455C994.624 26.7599 993.86 31.3466 993.86 36.44H999.86C999.86 31.9333 1000.54 28.136 1001.8 24.9825L996.237 22.7455ZM993.86 36.44C993.86 41.5313 994.623 46.0944 996.244 50.0559L1001.8 47.7841C1000.54 44.7056 999.86 40.9487 999.86 36.44H993.86ZM996.253 50.0774C997.931 54.0902 1000.48 57.3114 1003.93 59.6199L1007.27 54.6361C1004.89 53.0406 1003.05 50.7898 1001.79 47.7626L996.253 50.0774ZM1003.93 59.6199C1007.43 61.9672 1011.68 63.0813 1016.5 63.1517L1016.58 57.1523C1012.63 57.0947 1009.59 56.1928 1007.27 54.6361L1003.93 59.6199ZM1071.22 71L1068.34 71.8437L1068.97 74H1071.22V71ZM1050.96 1.88V-1.12H1046.95L1048.08 2.72368L1050.96 1.88ZM1064.69 1.88L1067.58 1.09064L1066.98 -1.12H1064.69V1.88ZM1077.65 49.4L1074.75 50.1894L1077.65 60.791L1080.54 50.1908L1077.65 49.4ZM1090.61 1.976L1090.59 -1.02393L1088.31 -1.00803L1087.71 1.18516L1090.61 1.976ZM1104.34 1.88L1107.23 1.09064L1106.62 -1.13607L1104.32 -1.11993L1104.34 1.88ZM1117.3 49.4L1114.4 50.1894L1117.3 60.8018L1120.19 50.1894L1117.3 49.4ZM1130.26 1.88V-1.12H1127.96L1127.36 1.09064L1130.26 1.88ZM1143.98 1.88L1146.86 2.72368L1147.99 -1.12H1143.98V1.88ZM1123.73 71V74H1125.97L1126.61 71.8437L1123.73 71ZM1110.86 71L1107.98 71.8277L1108.6 74H1110.86V71ZM1097.47 24.344L1100.36 23.5163L1097.47 13.4703L1094.59 23.5163L1097.47 24.344ZM1084.08 71V74H1086.34L1086.96 71.8277L1084.08 71ZM1074.09 70.1563L1053.84 1.03631L1048.08 2.72368L1068.34 71.8437L1074.09 70.1563ZM1050.96 4.88H1064.69V-1.12H1050.96V4.88ZM1061.79 2.66935L1074.75 50.1894L1080.54 48.6106L1067.58 1.09064L1061.79 2.66935ZM1080.54 50.1908L1093.5 2.76683L1087.71 1.18516L1074.75 48.6092L1080.54 50.1908ZM1090.63 4.97592L1104.36 4.87992L1104.32 -1.11993L1090.59 -1.02393L1090.63 4.97592ZM1101.44 2.66935L1114.4 50.1894L1120.19 48.6106L1107.23 1.09064L1101.44 2.66935ZM1120.19 50.1894L1133.15 2.66935L1127.36 1.09064L1114.4 48.6106L1120.19 50.1894ZM1130.26 4.88H1143.98V-1.12H1130.26V4.88ZM1141.11 1.03631L1120.85 70.1563L1126.61 71.8437L1146.86 2.72368L1141.11 1.03631ZM1123.73 68H1110.86V74H1123.73V68ZM1113.75 70.1723L1100.36 23.5163L1094.59 25.1717L1107.98 71.8277L1113.75 70.1723ZM1094.59 23.5163L1081.2 70.1723L1086.96 71.8277L1100.36 25.1717L1094.59 23.5163ZM1084.08 68H1071.22V74H1084.08V68Z" fill="white"/>
</svg>
