<svg width="32" height="32" viewBox="0 0 32 32" fill="none" xmlns="http://www.w3.org/2000/svg">
<path fill-rule="evenodd" clip-rule="evenodd" d="M5.37136 27.4587C4.94603 27.2774 4.74603 26.784 4.9287 26.3587L5.7527 24.4174L3.43803 23.432C3.01136 23.252 2.81136 22.7587 2.9927 22.3334C3.17403 21.908 3.66736 21.708 4.09136 21.8894L6.4087 22.8747L8.37936 18.24C6.3087 17.3014 4.68203 15.4427 4.13403 13.0574C3.1967 8.99869 5.73003 4.94536 9.79003 4.00669C12.0394 3.48936 14.2887 4.03736 16.006 5.31869C17.722 4.03736 19.9714 3.48936 22.222 4.00669C26.282 4.94536 28.8154 8.99869 27.878 13.0574C27.3287 15.4427 25.702 17.3014 23.6314 18.24L25.602 22.8747L27.9207 21.8894C28.3447 21.708 28.838 21.908 29.0194 22.3334C29.2007 22.7587 29.0007 23.252 28.574 23.432L26.258 24.4174L27.0834 26.3587C27.266 26.784 27.066 27.2774 26.6407 27.4587C26.2154 27.64 25.722 27.44 25.5407 27.016L24.714 25.0734L22.4007 26.056C21.9754 26.2374 21.482 26.0374 21.302 25.612C21.1207 25.1867 21.3194 24.6934 21.746 24.5134L24.058 23.5307L22.03 18.7587C21.002 18.9694 19.9154 18.968 18.8274 18.716C17.7727 18.4734 16.8194 18.02 16.006 17.4107C15.19 18.02 14.238 18.4734 13.1847 18.716C12.0967 18.968 11.0087 18.9694 9.9807 18.7587L7.9527 23.5307L10.266 24.5134C10.6927 24.6934 10.8914 25.1867 10.71 25.612C10.53 26.0374 10.0367 26.2374 9.61136 26.056L7.2967 25.0734L6.47136 27.016C6.29003 27.44 5.7967 27.64 5.37136 27.4587ZM12.8074 17.0814C13.526 16.916 14.1834 16.6254 14.762 16.236C13.2807 14.4814 12.6154 12.0747 13.1714 9.66536C13.45 8.45469 14.0074 7.37869 14.758 6.49069C13.4567 5.61736 11.8127 5.26403 10.1674 5.64269C7.01003 6.37069 5.03937 9.52536 5.7687 12.6814C6.4967 15.8374 9.65003 17.8094 12.8074 17.0814ZM26.2434 12.6814C26.9727 9.52536 25.002 6.37069 21.8447 5.64269C20.198 5.26403 18.554 5.61736 17.2527 6.49069C18.0034 7.37869 18.5607 8.45469 18.8407 9.66536C19.3954 12.0747 18.7287 14.4814 17.2487 16.236C17.8274 16.6254 18.4847 16.916 19.2047 17.0814C22.362 17.8094 25.5154 15.8374 26.2434 12.6814ZM17.206 10.0427C16.9927 9.12003 16.5727 8.29869 16.006 7.61469C15.438 8.29869 15.018 9.12003 14.806 10.0427C14.3767 11.8947 14.8794 13.7467 16.006 15.1094C17.1314 13.7467 17.634 11.8947 17.206 10.0427Z" fill="currentColor"/>
</svg>
