<svg width="31" height="32" viewBox="0 0 31 32" fill="none" xmlns="http://www.w3.org/2000/svg">
<path fill-rule="evenodd" clip-rule="evenodd" d="M9.09797 1.11845C6.57475 1.2323 4.38776 1.8492 2.62182 3.60769C0.849702 5.37542 0.240469 7.57107 0.126338 10.068C0.0553914 11.6265 -0.359467 23.4006 0.843535 26.4884C1.65479 28.5715 3.25258 30.1731 5.35475 30.987C6.33566 31.3685 7.45541 31.6268 9.09797 31.7022C22.8322 32.3238 27.9234 31.9854 30.0703 26.4884C30.4512 25.5099 30.7134 24.3911 30.7859 22.7526C31.4136 8.98312 30.6841 5.9985 28.2905 3.60769C26.3919 1.7138 24.1586 0.424595 9.09797 1.11845ZM9.22441 28.9329C7.72065 28.8652 6.90478 28.6147 6.36035 28.4039C4.99078 27.8716 3.96206 26.8471 3.43305 25.4855C2.51692 23.1393 2.82077 11.996 2.90251 10.1929C2.98271 8.42672 3.34052 6.81255 4.5867 5.56638C6.12901 4.02788 8.12166 3.27387 21.6894 3.8862C23.4599 3.9662 25.0778 4.32328 26.3271 5.56638C27.8694 7.10486 28.6344 9.11285 28.0113 22.6285C27.9434 24.1285 27.6921 24.9425 27.4808 25.4855C26.085 29.0625 22.8738 29.5591 9.22441 28.9329ZM21.839 8.19714C21.839 9.21563 22.6672 10.0438 23.6898 10.0438C24.7123 10.0438 25.5421 9.21563 25.5421 8.19714C25.5421 7.17867 24.7123 6.35122 23.6898 6.35122C22.6672 6.35122 21.839 7.17867 21.839 8.19714ZM7.53713 16.4096C7.53713 20.7727 11.0829 24.3102 15.4569 24.3102C19.8309 24.3102 23.3767 20.7727 23.3767 16.4096C23.3767 12.0464 19.8309 8.51123 15.4569 8.51123C11.0829 8.51123 7.53713 12.0464 7.53713 16.4096ZM10.3164 16.4096C10.3164 13.5788 12.6175 11.282 15.4569 11.282C18.2963 11.282 20.5974 13.5788 20.5974 16.4096C20.5974 19.2419 18.2963 21.5394 15.4569 21.5394C12.6175 21.5394 10.3164 19.2419 10.3164 16.4096Z" fill="currentColor"/>
</svg>
