<svg width="19" height="20" viewBox="0 0 19 20" fill="none" xmlns="http://www.w3.org/2000/svg">
<path d="M17.6344 8.69668C17.4562 8.45918 17.1 8.34043 16.7437 8.34043H12.7062C12.2906 8.34043 11.9344 7.98418 11.9344 7.56855V2.52168C11.9344 1.86855 11.2812 1.39355 10.6875 1.39355C10.0937 1.39355 9.61875 1.86855 9.61875 2.52168C9.61875 3.8873 9.20312 5.25293 8.37188 6.38105L6.53125 8.45918V15.4061C7.54062 16.2967 9.08437 16.8311 10.5687 16.8311H15.6156C16.15 16.8311 16.5656 16.4748 16.6844 15.9404L17.8719 9.3498C17.8125 9.05293 17.8125 8.81543 17.6344 8.69668Z" fill="currentColor"/>
<path d="M4.0373 9.1123H2.49355C2.07793 9.1123 1.72168 9.46855 1.72168 9.88418V16.0592C1.72168 16.4748 2.07793 16.8311 2.49355 16.8311H4.0373C4.45293 16.8311 4.80918 16.4748 4.80918 16.0592V9.88418C4.80918 9.46855 4.45293 9.1123 4.0373 9.1123Z" fill="currentColor"/>
</svg>
