<svg viewBox="0 0 28 28" fill="none" xmlns="http://www.w3.org/2000/svg">
    <path d="M24.668 3.33317V24.6665H3.33464V3.33317H24.668ZM26.0013 0.666504H2.0013C1.64768 0.666504 1.30854 0.80698 1.05849 1.05703C0.808444 1.30708 0.667969 1.64622 0.667969 1.99984V25.9998C0.667969 26.3535 0.808444 26.6926 1.05849 26.9426C1.30854 27.1927 1.64768 27.3332 2.0013 27.3332H26.0013C26.3549 27.3332 26.6941 27.1927 26.9441 26.9426C27.1942 26.6926 27.3346 26.3535 27.3346 25.9998V1.99984C27.3346 1.64622 27.1942 1.30708 26.9441 1.05703C26.6941 0.80698 26.3549 0.666504 26.0013 0.666504Z" fill="white"/>
    <path d="M20.6667 18H7.33333C6.97971 18 6.64057 18.1405 6.39052 18.3905C6.14048 18.6406 6 18.9797 6 19.3333C6 19.687 6.14048 20.0261 6.39052 20.2761C6.64057 20.5262 6.97971 20.6667 7.33333 20.6667H20.6667C21.0203 20.6667 21.3594 20.5262 21.6095 20.2761C21.8595 20.0261 22 19.687 22 19.3333C22 18.9797 21.8595 18.6406 21.6095 18.3905C21.3594 18.1405 21.0203 18 20.6667 18Z" fill="white"/>
    <path d="M20.6693 12.6665H16.6693C16.3156 12.6665 15.9765 12.807 15.7265 13.057C15.4764 13.3071 15.3359 13.6462 15.3359 13.9998C15.3359 14.3535 15.4764 14.6926 15.7265 14.9426C15.9765 15.1927 16.3156 15.3332 16.6693 15.3332H20.6693C21.0229 15.3332 21.362 15.1927 21.6121 14.9426C21.8621 14.6926 22.0026 14.3535 22.0026 13.9998C22.0026 13.6462 21.8621 13.3071 21.6121 13.057C21.362 12.807 21.0229 12.6665 20.6693 12.6665Z" fill="white"/>
    <path d="M20.6693 7.33301H16.6693C16.3156 7.33301 15.9765 7.47348 15.7265 7.72353C15.4764 7.97358 15.3359 8.31272 15.3359 8.66634C15.3359 9.01996 15.4764 9.3591 15.7265 9.60915C15.9765 9.8592 16.3156 9.99967 16.6693 9.99967H20.6693C21.0229 9.99967 21.362 9.8592 21.6121 9.60915C21.8621 9.3591 22.0026 9.01996 22.0026 8.66634C22.0026 8.31272 21.8621 7.97358 21.6121 7.72353C21.362 7.47348 21.0229 7.33301 20.6693 7.33301Z" fill="white"/>
    <path d="M11.3333 7.33301H7.33333C6.59695 7.33301 6 7.92996 6 8.66634V13.9997C6 14.7361 6.59695 15.333 7.33333 15.333H11.3333C12.0697 15.333 12.6667 14.7361 12.6667 13.9997V8.66634C12.6667 7.92996 12.0697 7.33301 11.3333 7.33301Z" fill="white"/>
</svg>
