<svg width="28" height="28" viewBox="0 0 28 28" fill="none" xmlns="http://www.w3.org/2000/svg">
<path d="M24.667 3.33317V24.6665H3.33366V3.33317H24.667ZM26.0003 0.666504H2.00033C1.6467 0.666504 1.30756 0.80698 1.05752 1.05703C0.807468 1.30708 0.666992 1.64622 0.666992 1.99984V25.9998C0.666992 26.3535 0.807468 26.6926 1.05752 26.9426C1.30756 27.1927 1.6467 27.3332 2.00033 27.3332H26.0003C26.3539 27.3332 26.6931 27.1927 26.9431 26.9426C27.1932 26.6926 27.3337 26.3535 27.3337 25.9998V1.99984C27.3337 1.64622 27.1932 1.30708 26.9431 1.05703C26.6931 0.80698 26.3539 0.666504 26.0003 0.666504Z" fill="currentColor"/>
<path d="M20.6667 18H7.33333C6.97971 18 6.64057 18.1405 6.39052 18.3905C6.14048 18.6406 6 18.9797 6 19.3333C6 19.687 6.14048 20.0261 6.39052 20.2761C6.64057 20.5262 6.97971 20.6667 7.33333 20.6667H20.6667C21.0203 20.6667 21.3594 20.5262 21.6095 20.2761C21.8595 20.0261 22 19.687 22 19.3333C22 18.9797 21.8595 18.6406 21.6095 18.3905C21.3594 18.1405 21.0203 18 20.6667 18Z" fill="currentColor"/>
<path d="M20.6673 12.6665H16.6673C16.3137 12.6665 15.9746 12.807 15.7245 13.057C15.4745 13.3071 15.334 13.6462 15.334 13.9998C15.334 14.3535 15.4745 14.6926 15.7245 14.9426C15.9746 15.1927 16.3137 15.3332 16.6673 15.3332H20.6673C21.0209 15.3332 21.3601 15.1927 21.6101 14.9426C21.8602 14.6926 22.0007 14.3535 22.0007 13.9998C22.0007 13.6462 21.8602 13.3071 21.6101 13.057C21.3601 12.807 21.0209 12.6665 20.6673 12.6665Z" fill="currentColor"/>
<path d="M20.6673 7.33301H16.6673C16.3137 7.33301 15.9746 7.47348 15.7245 7.72353C15.4745 7.97358 15.334 8.31272 15.334 8.66634C15.334 9.01996 15.4745 9.3591 15.7245 9.60915C15.9746 9.8592 16.3137 9.99967 16.6673 9.99967H20.6673C21.0209 9.99967 21.3601 9.8592 21.6101 9.60915C21.8602 9.3591 22.0007 9.01996 22.0007 8.66634C22.0007 8.31272 21.8602 7.97358 21.6101 7.72353C21.3601 7.47348 21.0209 7.33301 20.6673 7.33301Z" fill="currentColor"/>
<path d="M11.3333 7.33301H7.33333C6.59695 7.33301 6 7.92996 6 8.66634V13.9997C6 14.7361 6.59695 15.333 7.33333 15.333H11.3333C12.0697 15.333 12.6667 14.7361 12.6667 13.9997V8.66634C12.6667 7.92996 12.0697 7.33301 11.3333 7.33301Z" fill="currentColor"/>
</svg>
