<svg width="32" height="32" viewBox="0 0 32 32" fill="none" xmlns="http://www.w3.org/2000/svg">
<path fill-rule="evenodd" clip-rule="evenodd" d="M15.462 22.6346C15.3434 22.7013 15.2207 22.7479 15.0954 22.7773C14.2634 22.9773 13.2887 22.4359 12.8354 21.6573C10.902 22.4186 8.77936 22.3839 6.88736 22.1253C6.45536 22.0653 6.11802 21.8359 5.88602 21.5519C5.66069 21.2773 5.53002 20.9479 5.46469 20.6373C5.34202 20.0546 5.40736 19.2813 5.85269 18.7653C6.12736 18.4479 6.53669 18.2493 7.01936 18.2946C7.67936 18.3573 8.43802 18.4506 9.16336 18.4666C9.42602 18.4733 9.67536 18.4679 9.91002 18.4506C9.62736 18.1533 9.41269 17.7986 9.34736 17.4159C9.29002 17.0826 9.34469 16.7186 9.57536 16.3933L9.65002 16.3026L9.67136 16.2813C4.96469 15.1466 1.34602 12.0213 1.26469 7.85326C1.20069 4.60659 4.16202 0.95726 8.11002 1.02259C12.2994 1.09192 15.422 4.66126 16.5367 9.25726L16.5327 9.26126L16.5407 9.25456C17.3314 8.60123 18.3327 8.83989 18.926 9.30789C19.2487 9.56389 19.518 9.93856 19.6314 10.3706C20.0714 10.4639 20.4634 10.6799 20.7714 10.9946C21.0714 11.3039 21.274 11.6906 21.3687 12.1146C22.0114 12.2492 22.5407 12.7652 22.8167 13.2572C23.1034 13.7719 23.2567 14.5626 22.7954 15.1932L22.594 15.4146L22.5767 15.4319L22.582 15.4279C27.0967 16.5546 30.5567 19.5452 30.7193 23.5786C30.8487 26.8252 27.9607 30.5346 24.0113 30.5479C19.866 30.5612 16.6967 27.1333 15.462 22.6346ZM29.2194 23.6386C29.0874 20.3333 25.99 17.5506 21.3447 16.6933L20.7714 17.2799L20.7727 17.2786C23.4033 18.1333 25.606 19.4266 26.8087 20.9466C28.29 22.82 28.1993 25.008 25.89 26.748C24.0153 28.1586 22.0927 27.5613 20.6327 25.9666C19.4327 24.66 18.454 22.6386 17.7833 20.3426L16.7047 21.4466L16.7114 21.4399C16.7154 21.4559 16.7207 21.4733 16.7247 21.4906C17.7074 26.0426 20.622 29.0586 24.0074 29.0479C27.0247 29.0373 29.3194 26.1066 29.2194 23.6386ZM24.9874 25.5493C26.614 24.3239 26.5927 23.0906 25.6327 21.8773C24.59 20.5613 22.4127 19.2866 19.5927 18.4879L19.0034 19.0919L18.9994 19.0959C19.6327 21.6293 20.6234 23.7386 21.738 24.9533C22.8314 26.1453 23.878 26.3853 24.9874 25.5493ZM14.73 21.3186L21.5567 14.3359C21.5927 14.3026 21.6474 14.2386 21.5074 13.9893C21.386 13.7733 21.222 13.6533 21.1234 13.6066L21.0834 13.5919L14.266 20.5706C14.2287 20.6079 14.19 20.6413 14.1394 20.6746L14.086 20.7706C14.1007 20.8493 14.1527 20.9759 14.322 21.1226C14.49 21.2693 14.6327 21.3093 14.73 21.3186ZM11.8314 20.4213C11.7927 20.3906 11.7567 20.3586 11.7207 20.3253C11.5354 20.1573 11.37 19.9559 11.2434 19.7266C10.5607 19.9386 9.81402 19.9826 9.13002 19.9666C8.53936 19.9546 7.96469 19.8973 7.41669 19.8426L6.95936 19.7973L6.94069 19.8519L6.92336 19.9333C6.90202 20.0533 6.90469 20.1946 6.93269 20.3293C6.96069 20.4653 7.00869 20.5559 7.04735 20.6039L7.09135 20.6386C8.71269 20.8613 10.3594 20.8826 11.8314 20.4213ZM13.2367 19.4759L19.9287 12.6293C19.918 12.3706 19.822 12.1719 19.6967 12.0413C19.61 11.9533 19.494 11.8813 19.346 11.8439C19.3433 11.8479 19.3393 11.8519 19.3367 11.8546L12.5101 18.8453L12.4967 18.8586C12.5301 18.9853 12.6074 19.1066 12.7301 19.2159C12.8381 19.3146 12.9674 19.3906 13.0981 19.4386L13.2367 19.4759ZM11.4714 17.7599L18.1647 10.9066L18.1834 10.8519C18.2034 10.7319 18.1527 10.6106 17.998 10.4866C17.8234 10.3506 17.6714 10.3413 17.574 10.3706L17.5087 10.4039L10.8514 17.2213L10.8927 17.2906C10.938 17.3559 11.0114 17.4413 11.122 17.5346C11.2287 17.6266 11.3314 17.6906 11.414 17.7333L11.4714 17.7599ZM10.8794 15.0439L11.4354 14.4746C8.66469 13.5679 6.34202 12.1773 5.11802 10.5626C3.67669 8.65993 3.81136 6.47459 6.15402 4.78259C8.05802 3.41059 9.96869 4.04659 11.3967 5.66926C12.6167 7.05726 13.5847 9.21059 14.2047 11.6386L15.322 10.4946C15.27 10.4159 15.2327 10.3253 15.214 10.2266C14.322 5.65193 11.47 2.57859 8.08469 2.52259C5.06869 2.47326 2.71669 5.35593 2.76469 7.82259C2.83002 11.1799 5.95802 14.0559 10.698 14.9679C10.766 14.9813 10.83 15.0039 10.89 15.0333L10.8794 15.0439ZM12.6114 13.2693L12.9687 12.9053C12.958 12.8759 12.95 12.8466 12.9434 12.8146C12.3674 10.1613 11.3954 7.93726 10.2714 6.66126C9.20203 5.44792 8.15936 5.18659 7.03269 5.99992C5.38203 7.19059 5.37936 8.42259 6.31403 9.65592C7.36069 11.0386 9.62203 12.3986 12.5607 13.2506C12.5767 13.2559 12.594 13.2626 12.6114 13.2693Z" fill="currentColor"/>
</svg>
