<svg viewBox="0 0 26 26" fill="none" xmlns="http://www.w3.org/2000/svg">
    <path fill-rule="evenodd" clip-rule="evenodd" d="M19.7566 17.6804C21.1735 15.8258 22.0252 13.5205 22.0252 11.0126C22.0252 4.93951 17.0857 0 11.0126 0C4.93951 0 0 4.93951 0 11.0126C0 17.0857 4.93951 22.0252 11.0126 22.0252C13.5205 22.0252 15.8273 21.1735 17.6818 19.7566L23.9238 26L26 23.9238L19.7566 17.6804ZM11.0126 19.0885C6.5591 19.0885 2.93669 15.4646 2.93669 11.0126C2.93669 6.56057 6.5591 2.93669 11.0126 2.93669C15.4661 2.93669 19.0885 6.56057 19.0885 11.0126C19.0885 15.4646 15.4661 19.0885 11.0126 19.0885Z" fill="white"/>
</svg>
