<svg width="24" height="25" viewBox="0 0 24 25" fill="none" xmlns="http://www.w3.org/2000/svg">
<g clip-path="url(#clip0_6_7084)">
<path fill-rule="evenodd" clip-rule="evenodd" d="M18.923 8.25776C17.7134 8.25776 16.6401 7.69461 15.9053 6.82262L8.85285 11.0141C9.00043 11.4451 9.0967 11.9026 9.0967 12.3865C9.0967 12.8357 9.00845 13.2618 8.88011 13.668L15.9278 17.8562C16.6626 17.0007 17.7246 16.4491 18.923 16.4491C21.1386 16.4491 22.9338 18.2971 22.9338 20.5778C22.9338 22.8585 21.1386 24.7065 18.923 24.7065C16.7075 24.7065 14.9123 22.8585 14.9123 20.5778C14.9123 20.1253 15.0005 19.6976 15.1305 19.2913L8.08438 15.1032C7.34961 15.962 6.28595 16.5152 5.08595 16.5152C2.87041 16.5152 1.0752 14.6672 1.0752 12.3865C1.0752 10.1058 2.87041 8.25776 5.08595 8.25776C6.25387 8.25776 7.29346 8.77798 8.02662 9.59877L15.1208 5.38253C14.9973 4.98616 14.9123 4.57 14.9123 4.12905C14.9123 1.84835 16.7075 0.000337601 18.923 0.000337601C21.1386 0.000337601 22.9338 1.84835 22.9338 4.12905C22.9338 6.40975 21.1386 8.25776 18.923 8.25776Z" fill="currentColor"/>
</g>
<defs>
<clipPath id="clip0_6_7084">
<rect width="24" height="24.7059" fill="currentColor" transform="matrix(1 0 0 -1 0 24.7061)"/>
</clipPath>
</defs>
</svg>
