<svg width="24" height="24" viewBox="0 0 24 24" fill="none" xmlns="http://www.w3.org/2000/svg">
<path fill-rule="evenodd" clip-rule="evenodd" d="M10.1709 21.739L10.1529 21.679C9.05692 17.063 10.0979 13.185 10.1369 8.04497C8.89692 7.63298 7.81692 6.81298 7.42192 5.74998H7.11792C7.11292 5.74998 7.10792 5.74997 7.10392 5.749C6.41692 5.743 5.91092 5.375 5.60792 4.883C5.31392 4.406 5.19892 3.811 5.21192 3.254C5.22492 2.697 5.36792 2.112 5.66192 1.647C5.95992 1.177 6.44492 0.794999 7.09992 0.786999C7.10492 0.786024 7.11092 0.784973 7.11792 0.784973H16.7549C16.7599 0.784973 16.7659 0.785949 16.7849 0.785949C17.4289 0.794949 17.9129 1.17795 18.2099 1.64695C18.5039 2.11195 18.6469 2.69695 18.6599 3.25395C18.6729 3.81095 18.5579 4.40595 18.2639 4.88295C17.9579 5.37695 17.4529 5.74195 16.7839 5.74995C16.7659 5.74995 16.7599 5.74995 16.7549 5.74995H16.2739C15.6809 6.87395 14.8269 7.58295 13.8859 7.96895C13.9139 13.1479 14.9719 17.0409 13.8709 21.6799L13.8539 21.7369C13.5599 22.5729 12.7989 23.0279 12.0459 23.0479C11.2739 23.0689 10.4909 22.636 10.1709 21.739ZM12.7369 21.489L12.7829 21.386L12.9509 20.587C13.6839 16.592 12.8249 13.018 12.7639 8.27997C12.2689 8.35598 11.7679 8.35997 11.2849 8.30197C11.2759 8.301 11.2669 8.29995 11.2589 8.29897C11.1959 13.026 10.3389 16.597 11.0719 20.586L11.2399 21.384L11.2919 21.502C11.4549 21.808 11.7349 21.931 12.0149 21.924C12.3089 21.917 12.5889 21.763 12.7369 21.489ZM14.9509 5.74998H8.68892C9.17192 6.43998 10.1959 7.04098 11.4179 7.18498C12.6989 7.33698 14.0549 6.96998 14.9509 5.74998ZM17.3059 4.29198C17.4569 4.04897 17.5449 3.68397 17.5349 3.28097C17.5259 2.87797 17.4209 2.50297 17.2599 2.24797C17.1059 2.00497 16.9359 1.90997 16.7479 1.90997H7.12492C6.93792 1.90997 6.76792 2.00297 6.61192 2.24797C6.45092 2.50297 6.34592 2.87797 6.33692 3.28097C6.32692 3.68397 6.41492 4.04897 6.56592 4.29198C6.70192 4.51298 6.87492 4.62498 7.12492 4.62498H16.7479C16.9949 4.62498 17.1689 4.51498 17.3059 4.29198ZM7.23292 3.23597C7.23292 2.92597 7.48492 2.67397 7.79592 2.67397H16.1439C16.4539 2.67397 16.7059 2.92597 16.7059 3.23597C16.7059 3.54697 16.4539 3.79897 16.1439 3.79897H7.79592C7.48492 3.79897 7.23292 3.54697 7.23292 3.23597Z" fill="currentColor"/>
</svg>
