<svg viewBox="0 0 28 26" fill="none" xmlns="http://www.w3.org/2000/svg">
    <path d="M 6.617 24.921 L 6.617 24.921 C 6.105 25.18 5.46 24.722 5.618 24.083 L 7.06 18.236 L 7.06 18.236 C 7.276 17.36 7.049 16.43 6.449 15.754 C 6.449 15.754 6.449 15.754 6.449 15.754 L 1.689 10.393 L 1.689 10.393 C 1.274 9.925 1.59 9.212 2.158 9.167 L 8.798 8.65 C 9.789 8.572 10.652 7.956 11.058 7.051 L 11.069 7.037 L 11.058 7.051 L 13.357 1.925 C 13.357 1.925 13.357 1.925 13.357 1.925 C 13.611 1.358 14.39 1.358 14.644 1.925 C 14.644 1.925 14.644 1.925 14.644 1.925 L 16.942 7.051 C 17.348 7.956 18.211 8.572 19.202 8.65 L 25.842 9.167 C 26.41 9.212 26.726 9.925 26.311 10.393 L 26.311 10.393 L 21.551 15.754 C 21.551 15.754 21.551 15.754 21.551 15.754 C 20.951 16.43 20.724 17.36 20.94 18.236 L 22.382 24.083 C 22.54 24.722 21.895 25.18 21.383 24.921 L 15.217 21.795 C 14.451 21.407 13.549 21.407 12.784 21.795 L 6.617 24.921 Z" stroke-width="2" stroke-linecap="round" stroke-linejoin="round" stroke="currentColor"/>
</svg>
