<svg viewBox="0 0 28 26" fill="none" xmlns="http://www.w3.org/2000/svg">
    <path d="M6.61706 24.9207L6.61705 24.9207C6.10518 25.1801 5.45998 24.7219 5.61768 24.0825L7.05954 18.2362L7.05955 18.2362C7.27569 17.3597 7.04886 16.4295 6.44872 15.7536C6.44872 15.7536 6.44871 15.7536 6.4487 15.7536L1.68903 10.3928L1.68902 10.3928C1.27389 9.92522 1.59026 9.21173 2.15824 9.16744L8.79813 8.6497L8.79813 8.6497C9.78918 8.57241 10.6523 7.9555 11.0577 7.05144L10.1452 8.24228L11.0577 7.05143L13.3565 1.92472C13.3565 1.92471 13.3565 1.92471 13.3565 1.9247C13.6105 1.35843 14.3895 1.35843 14.6435 1.92471C14.6435 1.92471 14.6435 1.92472 14.6435 1.92472L16.9423 7.05134C17.3477 7.95553 18.2109 8.57241 19.2018 8.6497L19.2018 8.6497L25.8417 9.16744C26.4098 9.21174 26.726 9.92529 26.311 10.3927L26.3109 10.3928L21.5513 15.7536C21.5513 15.7536 21.5513 15.7536 21.5513 15.7536C20.9511 16.4295 20.7243 17.3597 20.9404 18.2362L20.9404 18.2362L22.3823 24.0825C22.54 24.7219 21.8948 25.1801 21.383 24.9207L21.383 24.9207L15.2165 21.7953C14.4512 21.4073 13.5488 21.4073 12.7835 21.7953L6.61706 24.9207Z" stroke="white" stroke-width="2" stroke-linecap="round" stroke-linejoin="round"/>
</svg>
