<svg width="38" height="32" viewBox="0 0 38 32" fill="none" xmlns="http://www.w3.org/2000/svg">
<path d="M24.9366 2.78845C26.898 2.78845 29.1234 3.56728 30.3705 4.86452C31.921 4.5635 33.3842 4.01283 34.6994 3.24953C34.1917 4.8036 33.1083 6.10801 31.7012 6.93223C33.0784 6.76858 34.3972 6.41381 35.6192 5.88225C34.7042 7.21653 33.5491 8.39074 32.216 9.33082C32.228 9.61512 32.2351 9.9018 32.2351 10.1885C32.2351 18.9885 25.6151 29.0678 13.0655 29.0678C9.21437 29.0678 5.38235 28.0322 2.3662 26.1425C2.89895 26.207 3.44246 26.238 3.99194 26.238C7.18847 26.238 10.1306 25.1737 12.4682 23.3843C9.47955 23.333 6.95912 21.4062 6.09429 18.7627C6.50879 18.8392 6.93881 18.8822 7.37839 18.8822C7.99715 18.8822 8.60277 18.8022 9.17375 18.6481C6.05248 18.0401 3.70167 15.3476 3.70167 12.1212C3.70167 12.0902 3.70167 12.0627 3.70167 12.034C4.62264 12.5333 5.67262 12.8343 6.79189 12.8702C4.96069 11.6721 3.75781 9.63781 3.75781 7.32642C3.75781 6.10563 4.09347 4.96008 4.67998 3.98058C8.04374 8.00491 13.0727 10.6579 18.7442 10.9375C18.626 10.4501 18.5651 9.93644 18.5651 9.42161C18.5651 5.74249 21.1667 2.78845 24.9366 2.78845ZM35.6192 5.88225H35.6252H35.6192ZM24.9366 0.399414C20.3449 0.399414 16.7936 3.68792 16.2608 8.22589C12.4515 7.45304 8.98622 5.42117 6.49684 2.44323C6.04412 1.90092 5.37758 1.59154 4.67998 1.59154C4.61786 1.59154 4.55575 1.59393 4.49363 1.59871C3.72914 1.65963 3.0411 2.08727 2.64571 2.74784C1.8203 4.1287 1.38311 5.71143 1.38311 7.32642C1.38311 8.40268 1.57662 9.45266 1.93975 10.4334C1.55154 10.8658 1.32816 11.4344 1.32816 12.034V12.1212C1.32816 14.4613 2.24675 16.6317 3.77334 18.2598C3.68614 18.6684 3.70525 19.0996 3.83904 19.5093C4.36701 21.1219 5.32502 22.5099 6.56732 23.5683C5.73235 23.7546 4.8711 23.849 3.99194 23.849C3.52727 23.849 3.07693 23.8227 2.65288 23.7702C2.55612 23.7594 2.46056 23.7534 2.365 23.7534C1.36997 23.7534 0.465719 24.3829 0.12767 25.3481C-0.24263 26.4041 0.165895 27.5783 1.11195 28.1708C4.49483 30.2898 8.74014 31.4569 13.0655 31.4569C21.2348 31.4569 26.3079 27.6858 29.1246 24.5227C32.5409 20.6871 34.5286 15.5913 34.6062 10.4991C35.7136 9.5757 36.6907 8.51019 37.5185 7.31806C37.8183 6.91909 37.9963 6.42098 37.9963 5.88225C37.9963 5.06878 37.5937 4.35088 36.9785 3.91846C37.2449 2.99869 36.9391 2.00246 36.1961 1.39445C35.7625 1.04087 35.2322 0.860498 34.6982 0.860498C34.2909 0.860498 33.8812 0.965616 33.5121 1.18063C32.7177 1.64171 31.8684 2.00485 30.9737 2.26525C29.33 1.10657 27.0999 0.399414 24.9366 0.399414Z" fill="currentColor"/>
</svg>
