<svg viewBox="0 0 28 28" fill="none" xmlns="http://www.w3.org/2000/svg">
    <path d="M10.25 26.5H17.75C24 26.5 26.5 24 26.5 17.75V10.25C26.5 4 24 1.5 17.75 1.5H10.25C4 1.5 1.5 4 1.5 10.25V17.75C1.5 24 4 26.5 10.25 26.5Z" stroke="white" stroke-width="2" stroke-linecap="round" stroke-linejoin="round"/>
    <path opacity="0.4" d="M16.0706 13.9999L14.4737 14.923L12.8776 15.8458C12.8771 15.8461 12.8766 15.8464 12.8761 15.8467C12.8757 15.8469 12.8754 15.8471 12.875 15.8473V13.9999V12.1524C12.8753 12.1526 12.8756 12.1528 12.876 12.153C12.8765 12.1533 12.877 12.1536 12.8776 12.1539L14.4737 13.0767L14.4737 13.0767L16.0706 13.9999Z" stroke="white" stroke-width="5" stroke-miterlimit="10" stroke-linecap="round" stroke-linejoin="round"/>
</svg>
